<svg version="1.1" id="Layer_1" xmlns="http://www.w3.org/2000/svg" xmlns:xlink="http://www.w3.org/1999/xlink" x="0px" y="0px"
	 width="100%" viewBox="0 0 274 143" enable-background="new 0 0 274 143" xml:space="preserve">
<path fill="#FEFFFF" opacity="1.000000" stroke="none" 
	d="
M1.000000,21.000000 
	C1.000000,14.336971 1.000000,7.673943 1.000000,1.008185 
	C92.279854,1.005457 183.559708,1.005457 274.919800,1.005457 
	C274.919800,48.587059 274.919800,96.174294 274.919800,143.880768 
	C183.666763,143.880768 92.333405,143.880768 1.000026,143.884506 
	C1.000000,113.904602 1.000000,83.920959 1.437807,53.468735 
	C6.050838,52.158672 10.226061,51.317196 13.730804,50.610844 
	C17.814440,51.426064 21.577946,52.491028 25.402878,52.803089 
	C27.202581,52.949921 29.120384,51.649220 30.989109,51.472645 
	C30.995127,60.595135 31.143068,69.252998 30.932993,77.902161 
	C30.836300,81.883224 32.371265,83.228325 36.219669,83.054985 
	C41.202423,82.830559 46.208000,82.858589 51.194530,83.036438 
	C57.467445,83.260162 63.731030,83.745300 70.038101,84.449432 
	C70.999557,85.847610 71.921555,86.914009 72.843544,87.980408 
	C73.270546,87.651512 73.697540,87.322617 74.124535,86.993721 
	C73.443298,85.993904 72.762062,84.994095 72.358765,83.689590 
	C74.115044,83.256790 75.593346,83.017296 77.071724,83.016830 
	C119.380379,83.003418 161.689041,83.014000 203.964111,83.364441 
	C203.192932,85.371597 202.455338,87.034996 201.717743,88.698402 
	C202.123718,88.962212 202.529709,89.226028 202.935684,89.489845 
	C204.291534,87.697014 205.647400,85.904190 207.415039,84.024979 
	C209.941315,83.625931 212.053131,83.066467 214.170792,83.043365 
	C223.328186,82.943466 232.489014,83.088448 241.644058,82.910751 
	C243.109680,82.882301 244.552231,81.665138 246.002716,80.998756 
	C246.000000,81.000000 245.997467,81.005440 246.395782,80.917618 
	C247.168823,80.326660 247.867294,79.825737 247.870758,79.320038 
	C247.951080,67.656982 248.065674,55.990902 247.801086,44.333851 
	C247.775208,43.194271 245.418030,41.314026 243.987289,41.151939 
	C240.037857,40.704517 236.005829,40.985970 232.009216,40.611626 
	C232.067719,39.758591 232.324173,39.175964 232.144379,38.804512 
	C231.376602,37.218376 230.479980,35.694599 229.630371,34.148071 
	C228.754639,35.445847 227.705917,36.665325 227.069550,38.071426 
	C226.701157,38.885445 226.996811,39.999977 226.525375,40.983353 
	C208.041702,40.974358 190.026245,40.961273 171.966904,40.598713 
	C171.270721,38.959751 170.618454,37.670265 170.002335,36.452248 
	C175.543991,30.931513 176.452179,26.140333 172.819412,22.372337 
	C169.765732,19.204983 163.331131,19.221697 160.149353,22.405243 
	C156.597443,25.959152 157.465591,30.458075 162.908890,36.521690 
	C162.276672,37.979717 161.632950,39.464260 160.562347,40.959358 
	C158.427078,40.964447 156.718658,40.958981 154.972504,40.611641 
	C155.302170,38.069714 155.669601,35.869663 156.141647,33.043064 
	C156.170563,33.064240 155.509201,32.167721 154.925949,32.215939 
	C148.616425,32.737522 146.163559,29.901884 146.854218,23.702129 
	C146.941010,22.923050 145.211029,21.941586 144.322815,21.053890 
	C143.550980,22.062309 142.055695,23.124559 142.126083,24.070305 
	C142.545837,29.711248 143.326965,35.325302 143.519104,40.959385 
	C124.703094,40.973339 106.354782,40.976292 88.011002,40.592220 
	C88.002838,38.375694 88.156174,36.515697 87.830727,34.743633 
	C87.769119,34.408161 85.043694,34.000034 84.852066,34.346676 
	C83.979622,35.924847 83.544098,37.751949 83.019180,39.509758 
	C82.884186,39.961823 82.995461,40.487427 82.525360,40.983341 
	C65.373001,40.992638 48.688877,40.997845 31.653065,40.966301 
	C27.389334,38.935181 25.545982,36.898197 29.507650,32.745621 
	C32.217297,29.905394 32.018791,25.990749 29.274687,22.846163 
	C26.236809,19.364925 21.438213,18.871929 17.604603,21.809731 
	C14.481851,24.202782 12.841751,27.365713 15.156813,31.305346 
	C16.312092,33.271332 17.602156,35.158123 19.065727,37.447510 
	C17.050283,39.327930 15.095702,41.151566 13.141121,42.975201 
	C12.709908,42.818378 12.278695,42.661560 11.847483,42.504742 
	C11.847483,40.383339 11.126597,37.883514 11.999634,36.220413 
	C13.742579,32.900154 12.812562,31.931522 9.557323,32.017818 
	C4.552423,32.150497 2.867366,29.496723 2.897595,24.841610 
	C2.905884,23.565235 1.666722,22.280758 1.000000,21.000000 
M192.899689,93.678192 
	C192.804718,93.636368 192.709747,93.594551 192.614777,93.552727 
	C192.720810,93.718147 192.826859,93.883568 192.992676,94.527229 
	C193.131210,94.792923 193.269745,95.058617 193.408279,95.324310 
	C193.286774,94.862709 193.165253,94.401108 192.899689,93.678192 
M163.247711,106.002586 
	C162.423615,105.923393 161.527527,106.026840 160.787201,105.735085 
	C156.298889,103.966286 153.096588,105.848251 152.352310,110.291039 
	C153.999084,110.112579 155.850113,110.161598 157.542068,109.666695 
	C159.755493,109.019249 161.843155,107.941895 164.656006,107.226822 
	C172.337631,104.462440 180.040894,101.754585 187.664490,98.838516 
	C188.359192,98.572792 188.542938,96.971298 188.982666,95.871536 
	C188.982666,95.871536 188.995163,96.017357 188.421066,96.432907 
	C180.292313,99.626060 172.163559,102.819221 163.247711,106.002586 
M87.379280,95.941704 
	C87.572731,96.775177 87.766182,97.608643 87.196007,98.889977 
	C83.072083,104.319748 89.470757,106.533928 90.929886,110.384392 
	C89.101723,112.359375 87.359924,114.241051 85.618126,116.122734 
	C85.108978,116.040611 84.599838,115.958488 84.090698,115.876366 
	C84.090698,113.707726 83.421646,111.234772 84.238953,109.437881 
	C85.658386,106.317192 84.622467,105.107857 81.833771,104.466415 
	C80.094521,104.066368 78.309616,103.864830 76.673553,103.595352 
	C76.017120,100.794846 75.605316,98.194984 74.724228,95.765297 
	C74.440224,94.982124 72.953415,94.331123 71.954628,94.229172 
	C71.387146,94.171234 70.156151,95.336922 70.144157,95.969032 
	C70.065575,100.107834 69.451576,104.486885 70.596825,108.313255 
	C71.402908,111.006454 71.676636,112.629265 70.115585,114.977951 
	C67.672058,118.654335 69.146423,122.242928 72.024689,124.787613 
	C74.946358,127.370674 78.570328,128.044281 82.054787,125.322098 
	C83.434555,124.244194 84.761993,123.099289 86.073006,122.018089 
	C91.421585,127.359154 96.075508,128.682709 99.933754,125.248398 
	C106.249405,119.626701 102.408546,114.431206 98.194504,110.280548 
	C99.760880,108.146706 100.882050,106.619370 102.734306,105.148819 
	C105.684448,106.104843 108.634598,107.060875 111.584740,108.016899 
	C111.764236,107.526138 111.943741,107.035378 112.123238,106.544624 
	C109.084908,105.326355 106.046585,104.108093 103.002106,102.093620 
	C102.617699,96.002846 99.699547,92.714005 94.393547,93.108864 
	C92.071373,93.281670 89.834625,94.602516 87.379280,95.941704 
M232.851364,124.850639 
	C237.147125,128.050110 241.722916,127.709641 245.042953,124.052399 
	C250.039825,118.548058 245.395859,114.067551 242.028030,109.997597 
	C248.125076,102.502380 248.548416,100.043526 244.636475,96.138443 
	C240.876068,92.384628 237.259903,91.996315 233.594910,94.952759 
	C228.946289,98.702667 229.162598,101.688713 234.954865,110.497299 
	C233.065079,112.291161 231.117126,114.140228 229.169189,115.989304 
	C228.739624,115.852036 228.310074,115.714775 227.880524,115.577507 
	C227.880524,113.605629 227.173157,111.230621 228.021423,109.742172 
	C230.058456,106.167809 227.817139,105.209618 225.364822,104.342682 
	C223.862183,103.811485 222.166290,103.826889 220.540909,103.594498 
	C220.091553,101.120735 219.974991,98.759903 219.156876,96.674232 
	C218.724182,95.571121 217.070618,94.946892 215.968231,94.106453 
	C215.313141,95.226692 214.039413,96.388435 214.111313,97.459892 
	C214.404495,101.828972 215.157089,106.165321 215.623428,110.526245 
	C215.719543,111.424957 215.585602,112.565926 215.094360,113.273605 
	C212.410919,117.139374 211.701233,121.065529 215.369522,124.515076 
	C219.226303,128.141891 222.474716,127.792625 228.065918,123.349854 
	C230.280212,121.590363 231.250046,122.547821 232.851364,124.850639 
M93.641624,23.008856 
	C101.286385,20.050690 108.931137,17.092522 116.049141,14.338184 
	C110.932854,12.872428 91.467438,19.981142 86.097015,26.399939 
	C89.060211,25.081429 91.016350,24.211023 93.641624,23.008856 
M188.112106,25.883011 
	C188.715576,26.062578 189.319046,26.242147 190.791290,26.680229 
	C187.287659,21.179995 181.918854,20.041681 177.303741,18.111742 
	C172.445236,16.080023 167.190460,14.995870 162.108841,13.497693 
	C162.031616,13.689484 161.954391,13.881275 161.877167,14.073067 
	C170.450409,17.880291 179.023666,21.687513 188.112106,25.883011 
M132.063400,111.999886 
	C137.321838,111.999886 142.580292,111.999886 147.838730,111.999886 
	C147.824478,111.152832 147.810226,110.305779 147.795975,109.458725 
	C141.537094,108.436005 135.173569,109.284767 128.419281,110.132675 
	C129.350357,110.750404 130.281418,111.368134 132.063400,111.999886 
M122.649811,108.604172 
	C123.247437,109.445908 123.845062,110.287651 124.442696,111.129387 
	C124.833092,110.747162 125.223495,110.364929 125.613899,109.982704 
	C124.770798,109.383957 123.927704,108.785210 122.649811,108.604172 
M199.881302,89.150688 
	C199.345123,89.380707 198.808929,89.610725 198.272751,89.840744 
	C198.610489,90.316643 198.948227,90.792549 199.285965,91.268456 
	C199.515594,90.752220 199.745239,90.235992 199.881302,89.150688 
M84.496124,93.697891 
	C84.120338,94.128105 83.733414,94.550201 83.398628,95.010246 
	C83.380043,95.035789 83.793297,95.375572 84.005554,95.569099 
	C84.286011,95.085831 84.566460,94.602562 84.496124,93.697891 
M196.366028,91.441292 
	C196.058975,91.829193 195.751907,92.217094 195.444855,92.604996 
	C195.820786,92.805466 196.196716,93.005928 196.572647,93.206398 
	C196.632401,92.749931 196.692169,92.293472 196.366028,91.441292 
M78.028557,91.215874 
	C78.145355,90.669724 78.262154,90.123573 78.378960,89.577423 
	C78.089340,89.582336 77.550438,89.562820 77.547203,89.595787 
	C77.491676,90.162773 77.502213,90.736229 78.028557,91.215874 
M113.374008,108.239647 
	C113.858498,108.111031 114.342987,107.982407 114.827477,107.853798 
	C114.654297,107.473465 114.481117,107.093132 114.307945,106.712807 
	C113.973495,107.037186 113.639046,107.361565 113.374008,108.239647 
M81.393234,91.613495 
	C80.982292,92.062248 80.571350,92.511002 80.160416,92.959755 
	C80.345787,93.127693 80.531166,93.295624 80.716545,93.463562 
	C81.058929,92.964989 81.401314,92.466408 81.393234,91.613495 
z"/>
<path fill="#FBFBFB" opacity="1.000000" stroke="none" 
	d="
M30.984671,51.004459 
	C29.120384,51.649220 27.202581,52.949921 25.402878,52.803089 
	C21.577946,52.491028 17.814440,51.426064 13.730804,50.610844 
	C10.226061,51.317196 6.050838,52.158672 1.437807,53.000076 
	C1.000000,42.645771 1.000000,32.291542 1.000000,21.468658 
	C1.666722,22.280758 2.905884,23.565235 2.897595,24.841610 
	C2.867366,29.496723 4.552423,32.150497 9.557323,32.017818 
	C12.812562,31.931522 13.742579,32.900154 11.999634,36.220413 
	C11.126597,37.883514 11.847483,40.383339 11.847483,42.504742 
	C12.278695,42.661560 12.709908,42.818378 13.141121,42.975201 
	C15.095702,41.151566 17.050283,39.327930 19.065727,37.447510 
	C17.602156,35.158123 16.312092,33.271332 15.156813,31.305346 
	C12.841751,27.365713 14.481851,24.202782 17.604603,21.809731 
	C21.438213,18.871929 26.236809,19.364925 29.274687,22.846163 
	C32.018791,25.990749 32.217297,29.905394 29.507650,32.745621 
	C25.545982,36.898197 27.389334,38.935181 31.488247,41.339191 
	C31.444975,44.834045 31.214823,47.919250 30.984671,51.004459 
z"/>
<path fill="#FBFBFB" opacity="1.000000" stroke="none" 
	d="
M232.580383,124.606155 
	C231.250046,122.547821 230.280212,121.590363 228.065918,123.349854 
	C222.474716,127.792625 219.226303,128.141891 215.369522,124.515076 
	C211.701233,121.065529 212.410919,117.139374 215.094360,113.273605 
	C215.585602,112.565926 215.719543,111.424957 215.623428,110.526245 
	C215.157089,106.165321 214.404495,101.828972 214.111313,97.459892 
	C214.039413,96.388435 215.313141,95.226692 215.968231,94.106453 
	C217.070618,94.946892 218.724182,95.571121 219.156876,96.674232 
	C219.974991,98.759903 220.091553,101.120735 220.540909,103.594498 
	C222.166290,103.826889 223.862183,103.811485 225.364822,104.342682 
	C227.817139,105.209618 230.058456,106.167809 228.021423,109.742172 
	C227.173157,111.230621 227.880524,113.605629 227.880524,115.577507 
	C228.310074,115.714775 228.739624,115.852036 229.169189,115.989304 
	C231.117126,114.140228 233.065079,112.291161 234.954865,110.497299 
	C229.162598,101.688713 228.946289,98.702667 233.594910,94.952759 
	C237.259903,91.996315 240.876068,92.384628 244.636475,96.138443 
	C248.548416,100.043526 248.125076,102.502380 242.028030,109.997597 
	C245.395859,114.067551 250.039825,118.548058 245.042953,124.052399 
	C241.722916,127.709641 237.147125,128.050110 232.580383,124.606155 
z"/>
<path fill="#EFF0F2" opacity="1.000000" stroke="none" 
	d="
M30.989109,51.472645 
	C31.214823,47.919250 31.444975,44.834045 31.839941,41.375946 
	C48.688877,40.997845 65.373001,40.992638 82.943161,40.990067 
	C85.221626,40.988213 86.614052,40.983727 88.006470,40.979244 
	C106.354782,40.976292 124.703094,40.973339 143.978577,40.974514 
	C148.273926,40.970268 151.642090,40.961891 155.010254,40.953514 
	C156.718658,40.958981 158.427078,40.964447 161.021484,40.974281 
	C165.275253,40.968494 168.643036,40.958340 172.010803,40.948189 
	C190.026245,40.961273 208.041702,40.974358 226.943176,40.990074 
	C229.221634,40.988201 230.614044,40.983696 232.006470,40.979195 
	C236.005829,40.985970 240.037857,40.704517 243.987289,41.151939 
	C245.418030,41.314026 247.775208,43.194271 247.801086,44.333851 
	C248.065674,55.990902 247.951080,67.656982 247.870758,79.320038 
	C247.867294,79.825737 247.168823,80.326660 246.397415,80.448364 
	C246.001236,69.570320 246.008835,59.073696 245.999603,48.577091 
	C245.994232,42.477207 245.583832,42.022732 239.492157,42.017635 
	C217.999130,41.999645 196.506058,42.020985 174.543060,42.019676 
	C163.044617,42.016529 152.016129,42.021114 140.519775,42.020592 
	C106.406563,42.012989 72.760727,42.097202 39.116379,41.911503 
	C34.250652,41.884647 32.726631,43.420132 32.902470,48.206322 
	C33.226360,57.022171 33.273846,65.870720 32.885620,74.681358 
	C32.668613,79.606308 33.882896,81.148521 39.136608,81.133423 
	C108.092445,80.935204 177.049026,80.999252 246.005432,80.997513 
	C244.552231,81.665138 243.109680,82.882301 241.644058,82.910751 
	C232.489014,83.088448 223.328186,82.943466 214.170792,83.043365 
	C212.053131,83.066467 209.941315,83.625931 207.124298,83.876320 
	C205.613770,83.549599 204.805740,83.285149 203.997711,83.020691 
	C161.689041,83.014000 119.380379,83.003418 77.071724,83.016830 
	C75.593346,83.017296 74.115044,83.256790 72.010513,83.705666 
	C70.922424,84.056847 70.460533,84.087250 69.998642,84.117653 
	C63.731030,83.745300 57.467445,83.260162 51.194530,83.036438 
	C46.208000,82.858589 41.202423,82.830559 36.219669,83.054985 
	C32.371265,83.228325 30.836300,81.883224 30.932993,77.902161 
	C31.143068,69.252998 30.995127,60.595135 30.989109,51.472645 
z"/>
<path fill="#FBFBFB" opacity="1.000000" stroke="none" 
	d="
M102.003212,105.092026 
	C100.882050,106.619370 99.760880,108.146706 98.194504,110.280548 
	C102.408546,114.431206 106.249405,119.626701 99.933754,125.248398 
	C96.075508,128.682709 91.421585,127.359154 86.073006,122.018089 
	C84.761993,123.099289 83.434555,124.244194 82.054787,125.322098 
	C78.570328,128.044281 74.946358,127.370674 72.024689,124.787613 
	C69.146423,122.242928 67.672058,118.654335 70.115585,114.977951 
	C71.676636,112.629265 71.402908,111.006454 70.596825,108.313255 
	C69.451576,104.486885 70.065575,100.107834 70.144157,95.969032 
	C70.156151,95.336922 71.387146,94.171234 71.954628,94.229172 
	C72.953415,94.331123 74.440224,94.982124 74.724228,95.765297 
	C75.605316,98.194984 76.017120,100.794846 76.673553,103.595352 
	C78.309616,103.864830 80.094521,104.066368 81.833771,104.466415 
	C84.622467,105.107857 85.658386,106.317192 84.238953,109.437881 
	C83.421646,111.234772 84.090698,113.707726 84.090698,115.876366 
	C84.599838,115.958488 85.108978,116.040611 85.618126,116.122734 
	C87.359924,114.241051 89.101723,112.359375 90.929886,110.384392 
	C89.470757,106.533928 83.072083,104.319748 87.866669,98.779152 
	C93.025963,100.809563 97.514587,102.950798 102.003212,105.092026 
z"/>
<path fill="#FBFBFB" opacity="1.000000" stroke="none" 
	d="
M171.966904,40.598709 
	C168.643036,40.958340 165.275253,40.968494 161.448364,40.963722 
	C161.632950,39.464260 162.276672,37.979717 162.908890,36.521690 
	C157.465591,30.458075 156.597443,25.959152 160.149353,22.405243 
	C163.331131,19.221697 169.765732,19.204983 172.819412,22.372337 
	C176.452179,26.140333 175.543991,30.931513 170.002335,36.452248 
	C170.618454,37.670265 171.270721,38.959751 171.966904,40.598709 
z"/>
<path fill="#FBFBFB" opacity="1.000000" stroke="none" 
	d="
M154.972504,40.611641 
	C151.642090,40.961891 148.273926,40.970268 144.446289,40.963512 
	C143.326965,35.325302 142.545837,29.711248 142.126083,24.070305 
	C142.055695,23.124559 143.550980,22.062309 144.322815,21.053890 
	C145.211029,21.941586 146.941010,22.923050 146.854218,23.702129 
	C146.163559,29.901884 148.616425,32.737522 154.925949,32.215939 
	C155.509201,32.167721 156.170563,33.064240 156.141647,33.043064 
	C155.669601,35.869663 155.302170,38.069714 154.972504,40.611641 
z"/>
<path fill="#F6F9FA" opacity="1.000000" stroke="none" 
	d="
M87.559090,95.402054 
	C89.834625,94.602516 92.071373,93.281670 94.393547,93.108864 
	C99.699547,92.714005 102.617699,96.002846 102.651619,102.453674 
	C97.843361,100.773689 93.385590,98.733650 88.776413,96.511131 
	C88.368706,96.130157 88.082283,95.995880 87.678040,95.809097 
	C87.590355,95.692368 87.559090,95.402054 87.559090,95.402054 
z"/>
<path fill="#4CC9DF" opacity="1.000000" stroke="none" 
	d="
M93.307053,23.174736 
	C91.016350,24.211023 89.060211,25.081429 86.097015,26.399939 
	C91.467438,19.981142 110.932854,12.872428 116.049141,14.338184 
	C108.931137,17.092522 101.286385,20.050690 93.307053,23.174736 
z"/>
<path fill="#4CC9DF" opacity="1.000000" stroke="none" 
	d="
M187.854507,25.688873 
	C179.023666,21.687513 170.450409,17.880291 161.877167,14.073067 
	C161.954391,13.881275 162.031616,13.689484 162.108841,13.497693 
	C167.190460,14.995870 172.445236,16.080023 177.303741,18.111742 
	C181.918854,20.041681 187.287659,21.179995 190.791290,26.680229 
	C189.319046,26.242147 188.715576,26.062578 187.854507,25.688873 
z"/>
<path fill="#4CC9DF" opacity="1.000000" stroke="none" 
	d="
M88.927811,96.693619 
	C93.385590,98.733650 97.843361,100.773689 102.654694,102.851776 
	C106.046585,104.108093 109.084908,105.326355 112.123238,106.544624 
	C111.943741,107.035378 111.764236,107.526138 111.584740,108.016899 
	C108.634598,107.060875 105.684448,106.104843 102.368759,105.120422 
	C97.514587,102.950798 93.025963,100.809563 88.248489,98.555222 
	C87.766182,97.608643 87.572731,96.775177 87.469185,95.671875 
	C87.559090,95.402054 87.590355,95.692368 87.729980,96.088882 
	C88.222343,96.554810 88.575081,96.624214 88.927811,96.693619 
z"/>
<path fill="#4CC9DF" opacity="1.000000" stroke="none" 
	d="
M188.963959,95.990105 
	C188.542938,96.971298 188.359192,98.572792 187.664490,98.838516 
	C180.040894,101.754585 172.337631,104.462440 164.299316,106.877228 
	C163.973358,106.355873 164.004089,106.184120 164.034805,106.012375 
	C172.163559,102.819221 180.292313,99.626060 188.704437,96.214813 
	C188.987823,95.996727 188.963959,95.990105 188.963959,95.990105 
z"/>
<path fill="#FDFEFE" opacity="1.000000" stroke="none" 
	d="
M131.637939,111.992874 
	C130.281418,111.368134 129.350357,110.750404 128.419281,110.132675 
	C135.173569,109.284767 141.537094,108.436005 147.795975,109.458725 
	C147.810226,110.305779 147.824478,111.152832 147.838730,111.999886 
	C142.580292,111.999886 137.321838,111.999886 131.637939,111.992874 
z"/>
<path fill="#FDFEFE" opacity="1.000000" stroke="none" 
	d="
M163.641266,106.007477 
	C164.004089,106.184120 163.973358,106.355873 163.963776,106.788559 
	C161.843155,107.941895 159.755493,109.019249 157.542068,109.666695 
	C155.850113,110.161598 153.999084,110.112579 152.352310,110.291039 
	C153.096588,105.848251 156.298889,103.966286 160.787201,105.735085 
	C161.527527,106.026840 162.423615,105.923393 163.641266,106.007477 
z"/>
<path fill="#FBFBFB" opacity="1.000000" stroke="none" 
	d="
M88.011002,40.592220 
	C86.614052,40.983727 85.221626,40.988213 83.411407,40.985973 
	C82.995461,40.487427 82.884186,39.961823 83.019180,39.509758 
	C83.544098,37.751949 83.979622,35.924847 84.852066,34.346676 
	C85.043694,34.000034 87.769119,34.408161 87.830727,34.743633 
	C88.156174,36.515697 88.002838,38.375694 88.011002,40.592220 
z"/>
<path fill="#FBFBFB" opacity="1.000000" stroke="none" 
	d="
M232.009216,40.611626 
	C230.614044,40.983696 229.221634,40.988201 227.411407,40.985985 
	C226.996811,39.999977 226.701157,38.885445 227.069550,38.071426 
	C227.705917,36.665325 228.754639,35.445847 229.630371,34.148071 
	C230.479980,35.694599 231.376602,37.218376 232.144379,38.804512 
	C232.324173,39.175964 232.067719,39.758591 232.009216,40.611626 
z"/>
<path fill="#FDFEFE" opacity="1.000000" stroke="none" 
	d="
M203.964111,83.364441 
	C204.805740,83.285149 205.613770,83.549599 206.712524,83.962708 
	C205.647400,85.904190 204.291534,87.697014 202.935684,89.489845 
	C202.529709,89.226028 202.123718,88.962212 201.717743,88.698402 
	C202.455338,87.034996 203.192932,85.371597 203.964111,83.364441 
z"/>
<path fill="#FDFEFE" opacity="1.000000" stroke="none" 
	d="
M70.038101,84.449432 
	C70.460533,84.087250 70.922424,84.056847 71.732574,84.010361 
	C72.762062,84.994095 73.443298,85.993904 74.124535,86.993721 
	C73.697540,87.322617 73.270546,87.651512 72.843544,87.980408 
	C71.921555,86.914009 70.999557,85.847610 70.038101,84.449432 
z"/>
<path fill="#FDFEFE" opacity="1.000000" stroke="none" 
	d="
M122.867203,108.395317 
	C123.927704,108.785210 124.770798,109.383957 125.613899,109.982704 
	C125.223495,110.364929 124.833092,110.747162 124.442696,111.129387 
	C123.845062,110.287651 123.247437,109.445908 122.867203,108.395317 
z"/>
<path fill="#FDFEFE" opacity="1.000000" stroke="none" 
	d="
M199.928085,89.435226 
	C199.745239,90.235992 199.515594,90.752220 199.285965,91.268456 
	C198.948227,90.792549 198.610489,90.316643 198.272751,89.840744 
	C198.808929,89.610725 199.345123,89.380707 199.928085,89.435226 
z"/>
<path fill="#FDFEFE" opacity="1.000000" stroke="none" 
	d="
M84.671524,93.908592 
	C84.566460,94.602562 84.286011,95.085831 84.005554,95.569099 
	C83.793297,95.375572 83.380043,95.035789 83.398628,95.010246 
	C83.733414,94.550201 84.120338,94.128105 84.671524,93.908592 
z"/>
<path fill="#FDFEFE" opacity="1.000000" stroke="none" 
	d="
M196.558990,91.639145 
	C196.692169,92.293472 196.632401,92.749931 196.572647,93.206398 
	C196.196716,93.005928 195.820786,92.805466 195.444855,92.604996 
	C195.751907,92.217094 196.058975,91.829193 196.558990,91.639145 
z"/>
<path fill="#FDFEFE" opacity="1.000000" stroke="none" 
	d="
M77.763412,91.262070 
	C77.502213,90.736229 77.491676,90.162773 77.547203,89.595787 
	C77.550438,89.562820 78.089340,89.582336 78.378960,89.577423 
	C78.262154,90.123573 78.145355,90.669724 77.763412,91.262070 
z"/>
<path fill="#FDFEFE" opacity="1.000000" stroke="none" 
	d="
M113.339302,107.962799 
	C113.639046,107.361565 113.973495,107.037186 114.307938,106.712799 
	C114.481117,107.093132 114.654297,107.473465 114.827477,107.853790 
	C114.342987,107.982407 113.858498,108.111031 113.339302,107.962799 
z"/>
<path fill="#FDFEFE" opacity="1.000000" stroke="none" 
	d="
M81.568466,91.790665 
	C81.401314,92.466408 81.058929,92.964989 80.716545,93.463562 
	C80.531166,93.295624 80.345787,93.127693 80.160416,92.959755 
	C80.571350,92.511002 80.982292,92.062248 81.568466,91.790665 
z"/>
<path fill="#FDFEFE" opacity="1.000000" stroke="none" 
	d="
M193.043732,93.939507 
	C193.165253,94.401108 193.286774,94.862709 193.408279,95.324310 
	C193.269745,95.058617 193.131210,94.792923 192.992661,94.262939 
	C192.992645,93.998642 193.043732,93.939507 193.043732,93.939507 
z"/>
<path fill="#FDFEFE" opacity="1.000000" stroke="none" 
	d="
M192.962769,94.023819 
	C192.826859,93.883568 192.720810,93.718147 192.614777,93.552734 
	C192.709747,93.594551 192.804718,93.636368 192.971710,93.808853 
	C193.043732,93.939507 192.992645,93.998642 192.962769,94.023819 
z"/>
<path fill="#4CC9DF" opacity="1.000000" stroke="none" 
	d="
M188.991486,96.007042 
	C188.995163,96.017357 188.982666,95.871536 188.973312,95.930817 
	C188.963959,95.990105 188.987823,95.996727 188.991486,96.007042 
z"/>
<path fill="#FCFEFE" opacity="1.000000" stroke="none" 
	d="
M246.002716,80.998749 
	C177.049026,80.999252 108.092445,80.935204 39.136608,81.133423 
	C33.882896,81.148521 32.668613,79.606308 32.885620,74.681358 
	C33.273846,65.870720 33.226360,57.022171 32.902470,48.206322 
	C32.726631,43.420132 34.250652,41.884647 39.116379,41.911503 
	C72.760727,42.097202 106.406563,42.012989 140.523956,42.435394 
	C139.855698,48.362862 143.872375,51.097717 147.118713,54.695183 
	C147.106445,59.467644 146.959366,63.796078 147.125443,68.112457 
	C147.275375,72.008881 144.938538,72.254921 141.981445,72.342697 
	C138.737961,72.438980 137.498520,71.136864 137.666306,67.922356 
	C137.848053,64.440079 137.940857,60.916622 137.588959,57.460350 
	C137.440292,56.000458 136.055618,54.666412 135.232773,53.275162 
	C134.518524,54.604900 133.290283,55.896572 133.188431,57.271667 
	C132.906754,61.075039 133.063110,64.913597 133.107529,68.737526 
	C133.145340,71.992058 134.181442,74.960159 137.679077,75.562950 
	C141.849014,76.281593 146.307022,77.287582 149.925705,73.783859 
	C150.480331,73.246849 150.999954,72.331177 150.984787,71.602089 
	C150.858002,65.503624 150.602310,59.407845 150.766266,53.223976 
	C153.439545,51.501560 155.732040,49.866417 158.454742,47.924438 
	C159.395279,49.860577 160.204971,51.527390 160.694885,53.368217 
	C157.139282,54.020882 156.111740,56.290653 156.021622,59.144238 
	C155.916824,62.463459 156.090668,65.792580 155.951324,69.109329 
	C155.793716,72.861519 157.414276,75.514412 161.082108,75.797768 
	C165.374939,76.129417 170.280075,77.462807 173.232498,72.571648 
	C173.785080,71.656212 173.980713,70.268311 173.759476,69.221359 
	C173.571167,68.330338 172.545349,67.616310 171.890060,66.823967 
	C171.220718,67.402809 170.021759,67.934738 169.965683,68.567886 
	C169.509720,73.716042 165.679840,72.324104 162.810028,72.180046 
	C159.306686,72.004189 160.135040,69.050323 160.034714,66.844879 
	C159.966843,65.352890 159.951187,63.851185 160.038452,62.361221 
	C160.165680,60.188789 159.231445,57.166420 162.841385,57.118252 
	C165.648941,57.080791 169.569458,55.482662 169.978012,60.710541 
	C170.031525,61.395470 171.172134,61.995438 171.809235,62.634758 
	C172.490738,61.845482 173.597809,61.142788 173.779099,60.251743 
	C174.514069,56.639088 172.042801,54.878441 169.697357,53.199314 
	C174.228455,50.502747 175.494385,46.658375 175.013000,42.027409 
	C196.506058,42.020985 217.999130,41.999645 239.492157,42.017635 
	C245.583832,42.022732 245.994232,42.477207 245.999603,48.577091 
	C246.008835,59.073696 246.001236,69.570320 245.999084,80.536186 
	C245.997467,81.005440 246.000000,81.000000 246.002716,80.998749 
M46.435173,46.112286 
	C37.173889,46.142395 35.978268,47.303314 35.972889,56.289070 
	C35.970200,60.780907 35.926434,65.273491 35.992931,69.764381 
	C36.058357,74.182922 38.774628,75.801003 42.792919,76.028481 
	C51.765690,76.536461 55.011909,75.363091 55.891548,71.154198 
	C56.059216,70.351929 56.260628,69.371681 55.953495,68.698441 
	C55.488304,67.678726 54.590832,66.856209 53.877026,65.949913 
	C53.187084,66.678116 51.985996,67.344116 51.888584,68.144432 
	C51.151566,74.199799 46.544907,71.889832 43.374676,71.967186 
	C39.630882,72.058533 40.808479,68.812599 40.717953,66.726402 
	C40.566628,63.239243 40.528103,59.732738 40.722660,56.250050 
	C40.854828,53.884159 39.369511,50.278931 43.652512,50.137203 
	C46.963242,50.027649 51.439178,48.390404 51.929531,54.372349 
	C51.990677,55.118290 53.343845,55.758324 54.098351,56.447433 
	C54.736912,55.634853 55.775852,54.898640 55.947811,53.997063 
	C56.923233,48.882938 54.165340,46.430904 46.435173,46.112286 
M122.214027,63.280010 
	C123.359581,66.747940 124.342072,70.284348 125.751831,73.641319 
	C126.165161,74.625549 127.791962,75.100189 128.862595,75.808388 
	C129.220856,74.664574 130.138901,73.349281 129.849289,72.403931 
	C127.417664,64.466232 124.897400,56.547699 122.041786,48.756077 
	C121.589081,47.520844 119.322624,46.261730 117.898811,46.266380 
	C116.499268,46.270947 114.298767,47.572903 113.839806,48.817955 
	C110.972252,56.596966 108.416153,64.495689 105.990433,72.426186 
	C105.701401,73.371132 106.826668,74.748665 107.296371,75.925667 
	C108.302742,75.100204 109.847977,74.468620 110.226273,73.417183 
	C112.359451,67.488167 114.189629,61.450760 116.179352,55.469013 
	C116.589737,54.235256 117.238617,53.080833 118.163620,51.036766 
	C119.692940,55.604908 120.849358,59.059174 122.214027,63.280010 
M200.296982,68.058128 
	C201.257141,75.203499 203.271484,76.542542 211.617889,76.062241 
	C216.378342,75.788300 218.309616,73.122688 218.697708,68.729637 
	C219.557480,58.997005 218.230743,54.900661 213.708176,53.602081 
	C213.548584,53.556259 213.388702,53.496029 213.225388,53.480892 
	C204.117462,52.637096 199.526535,53.730091 200.282318,63.683781 
	C200.370163,64.840721 200.294724,66.010048 200.296982,68.058128 
M90.980713,57.203144 
	C94.528099,57.198502 99.026276,55.312191 99.404190,61.575188 
	C99.429214,61.989834 100.749931,62.685024 101.382271,62.601425 
	C101.990761,62.520977 102.867905,61.660622 102.969521,61.035976 
	C103.457779,58.034626 103.048477,54.831306 99.705765,54.146969 
	C96.226135,53.434601 92.072136,52.815796 88.983086,54.063164 
	C82.576462,56.650177 85.773209,62.985455 85.157822,67.780144 
	C84.732681,71.092583 85.204536,74.625168 89.080116,75.367950 
	C92.400742,76.004372 96.009071,75.820389 99.365326,75.256416 
	C100.715157,75.029594 102.305542,72.982056 102.730370,71.467041 
	C103.113647,70.100204 102.055466,68.329163 101.632988,66.736382 
	C100.727005,67.783081 99.999405,69.122108 98.873833,69.808952 
	C97.121872,70.878029 95.122467,72.042480 93.183525,72.125183 
	C91.926704,72.178780 89.519615,70.419571 89.480362,69.401245 
	C89.330185,65.504486 89.929886,61.578823 90.980713,57.203144 
M236.991013,68.443169 
	C236.992950,69.941208 236.762024,71.489861 237.073044,72.920708 
	C237.307388,73.998779 238.236084,74.925926 238.855713,75.920250 
	C239.571991,74.855644 240.850616,73.819458 240.906097,72.721458 
	C241.132614,68.239449 241.131577,63.732090 240.934326,59.246387 
	C240.736618,54.750313 237.535538,53.590973 233.696762,53.370285 
	C227.072708,52.989464 223.638168,54.406754 223.264862,58.425804 
	C222.804871,63.378120 222.954666,68.401665 223.128143,73.384438 
	C223.158432,74.254211 224.605652,75.074661 225.398453,75.917892 
	C225.975861,75.045555 227.002792,74.197701 227.051880,73.296593 
	C227.250763,69.645226 227.287842,65.971062 227.119049,62.317581 
	C226.950150,58.661274 227.960495,56.865479 232.132950,56.887211 
	C236.421066,56.909546 237.222275,58.999668 237.007996,62.506615 
	C236.906677,64.164909 236.990860,65.834541 236.991013,68.443169 
M184.326050,57.331589 
	C185.451782,56.779503 186.603668,56.267883 187.649567,55.592213 
	C187.726425,55.542561 187.133911,54.236816 186.686386,53.639599 
	C185.647308,52.252995 184.552902,50.900440 183.387833,49.618721 
	C182.785217,48.955788 181.974304,48.020161 181.275345,48.035233 
	C180.559280,48.050674 179.592896,48.939060 179.214447,49.687317 
	C178.247742,51.598564 177.547333,53.644501 177.162842,54.593723 
	C177.941422,57.516453 178.799988,59.640091 179.018402,61.827641 
	C179.314972,64.797943 178.975647,67.826950 179.175858,70.812889 
	C179.422104,74.485542 181.816559,76.024925 185.260605,75.973198 
	C186.077530,75.960930 186.883163,75.197273 187.694000,74.779243 
	C187.226715,74.026070 186.744583,73.281624 186.295303,72.517853 
	C185.423126,71.035149 183.992508,69.602432 183.827713,68.039902 
	C183.480972,64.752266 183.802277,61.394180 184.326050,57.331589 
M69.261101,53.344078 
	C65.365097,53.533718 61.242298,53.552212 61.039112,58.960217 
	C60.865322,63.585838 60.852322,68.229813 61.088692,72.849274 
	C61.142979,73.910225 62.509533,74.904045 63.272171,75.928757 
	C63.901215,74.942924 64.999054,73.990814 65.072830,72.965057 
	C65.309593,69.673225 65.277367,66.349678 65.142303,63.046825 
	C64.995758,59.463531 64.954033,56.258789 70.109558,56.911758 
	C70.838669,57.004101 71.733429,55.788597 72.551514,55.178429 
	C71.710052,54.571308 70.868599,53.964184 69.261101,53.344078 
M194.957306,74.912651 
	C195.028976,68.792297 195.179565,62.670887 195.097198,56.552612 
	C195.082916,55.491272 194.083389,54.443195 193.538925,53.389000 
	C192.733185,54.424843 191.277405,55.432457 191.230988,56.501278 
	C190.994080,61.955837 190.957428,67.435661 191.271637,72.882362 
	C191.328369,73.865646 193.350403,74.735558 194.957306,74.912651 
M80.008980,62.586281 
	C79.993752,60.255428 80.117424,57.910511 79.883575,55.601803 
	C79.807686,54.852547 78.796104,54.198071 78.212509,53.500240 
	C77.483818,54.213444 76.144417,54.908695 76.122841,55.642685 
	C75.946800,61.631981 75.943268,67.630463 76.101540,73.620483 
	C76.122231,74.403542 77.358116,75.154495 78.031166,75.920319 
	C78.681740,75.129349 79.837753,74.372574 79.893982,73.541389 
	C80.118286,70.225739 80.000282,66.886925 80.008980,62.586281 
M115.626022,68.678619 
	C117.559341,70.596443 119.459251,70.186737 120.277115,67.889740 
	C120.596664,66.992287 119.024078,65.421112 118.313286,64.156784 
	C117.288712,65.453423 116.264137,66.750061 115.626022,68.678619 
M76.969383,51.185650 
	C78.243820,50.167053 79.518250,49.148457 80.792686,48.129860 
	C79.505791,47.446270 78.218895,46.762680 76.931999,46.079090 
	C76.731087,47.679073 76.530174,49.279060 76.969383,51.185650 
z"/>
<path fill="#F6F9FA" opacity="1.000000" stroke="none" 
	d="
M174.543060,42.019676 
	C175.494385,46.658375 174.228455,50.502747 169.304642,53.202843 
	C166.040405,53.309406 163.527542,53.251804 161.014664,53.194202 
	C160.204971,51.527390 159.395279,49.860577 158.454742,47.924438 
	C155.732040,49.866417 153.439545,51.501560 150.479630,53.193985 
	C148.914902,53.582813 148.017593,53.914360 147.120270,54.245911 
	C143.872375,51.097717 139.855698,48.362862 140.991821,42.440506 
	C152.016129,42.021114 163.044617,42.016529 174.543060,42.019676 
z"/>
<path fill="#FEFFFF" opacity="1.000000" stroke="none" 
	d="
M88.776413,96.511124 
	C88.575081,96.624214 88.222343,96.554810 87.817673,96.205612 
	C88.082283,95.995880 88.368706,96.130157 88.776413,96.511124 
z"/>
<path fill="#2EC0DA" opacity="1.000000" stroke="none" 
	d="
M46.873245,46.112389 
	C54.165340,46.430904 56.923233,48.882938 55.947811,53.997063 
	C55.775852,54.898640 54.736912,55.634853 54.098351,56.447433 
	C53.343845,55.758324 51.990677,55.118290 51.929531,54.372349 
	C51.439178,48.390404 46.963242,50.027649 43.652512,50.137203 
	C39.369511,50.278931 40.854828,53.884159 40.722660,56.250050 
	C40.528103,59.732738 40.566628,63.239243 40.717953,66.726402 
	C40.808479,68.812599 39.630882,72.058533 43.374676,71.967186 
	C46.544907,71.889832 51.151566,74.199799 51.888584,68.144432 
	C51.985996,67.344116 53.187084,66.678116 53.877026,65.949913 
	C54.590832,66.856209 55.488304,67.678726 55.953495,68.698441 
	C56.260628,69.371681 56.059216,70.351929 55.891548,71.154198 
	C55.011909,75.363091 51.765690,76.536461 42.792919,76.028481 
	C38.774628,75.801003 36.058357,74.182922 35.992931,69.764381 
	C35.926434,65.273491 35.970200,60.780907 35.972889,56.289070 
	C35.978268,47.303314 37.173889,46.142395 46.873245,46.112389 
z"/>
<path fill="#2CBFD9" opacity="1.000000" stroke="none" 
	d="
M122.109901,62.896725 
	C120.849358,59.059174 119.692940,55.604908 118.163620,51.036766 
	C117.238617,53.080833 116.589737,54.235256 116.179352,55.469013 
	C114.189629,61.450760 112.359451,67.488167 110.226273,73.417183 
	C109.847977,74.468620 108.302742,75.100204 107.296371,75.925674 
	C106.826668,74.748665 105.701401,73.371132 105.990433,72.426186 
	C108.416153,64.495689 110.972252,56.596966 113.839806,48.817955 
	C114.298767,47.572903 116.499268,46.270947 117.898811,46.266380 
	C119.322624,46.261730 121.589081,47.520844 122.041786,48.756077 
	C124.897400,56.547699 127.417664,64.466232 129.849289,72.403931 
	C130.138901,73.349281 129.220856,74.664574 128.862595,75.808388 
	C127.791962,75.100189 126.165161,74.625549 125.751831,73.641319 
	C124.342072,70.284348 123.359581,66.747940 122.109901,62.896725 
z"/>
<path fill="#36C2DB" opacity="1.000000" stroke="none" 
	d="
M200.295990,67.615875 
	C200.294724,66.010048 200.370163,64.840721 200.282318,63.683781 
	C199.526535,53.730091 204.117462,52.637096 213.225388,53.480892 
	C213.388702,53.496029 213.548584,53.556259 213.708176,53.602081 
	C218.230743,54.900661 219.557480,58.997005 218.697708,68.729637 
	C218.309616,73.122688 216.378342,75.788300 211.617889,76.062241 
	C203.271484,76.542542 201.257141,75.203499 200.295990,67.615875 
M206.742081,72.053261 
	C214.076141,72.590500 214.080719,72.590500 214.080078,65.516617 
	C214.079880,63.526340 214.533020,61.344711 213.854919,59.612232 
	C213.393372,58.432976 211.336411,57.239227 209.973206,57.216225 
	C208.330276,57.188503 205.275940,58.330414 205.242065,59.075558 
	C205.051208,63.273518 205.584305,67.504395 206.742081,72.053261 
z"/>
<path fill="#2EC0DA" opacity="1.000000" stroke="none" 
	d="
M90.615173,57.433548 
	C89.929886,61.578823 89.330185,65.504486 89.480362,69.401245 
	C89.519615,70.419571 91.926704,72.178780 93.183525,72.125183 
	C95.122467,72.042480 97.121872,70.878029 98.873833,69.808952 
	C99.999405,69.122108 100.727005,67.783081 101.632988,66.736382 
	C102.055466,68.329163 103.113647,70.100204 102.730370,71.467041 
	C102.305542,72.982056 100.715157,75.029594 99.365326,75.256416 
	C96.009071,75.820389 92.400742,76.004372 89.080116,75.367950 
	C85.204536,74.625168 84.732681,71.092583 85.157822,67.780144 
	C85.773209,62.985455 82.576462,56.650177 88.983086,54.063164 
	C92.072136,52.815796 96.226135,53.434601 99.705765,54.146969 
	C103.048477,54.831306 103.457779,58.034626 102.969521,61.035976 
	C102.867905,61.660622 101.990761,62.520977 101.382271,62.601425 
	C100.749931,62.685024 99.429214,61.989834 99.404190,61.575188 
	C99.026276,55.312191 94.528099,57.198502 90.615173,57.433548 
z"/>
<path fill="#36C2DB" opacity="1.000000" stroke="none" 
	d="
M147.118713,54.695183 
	C148.017593,53.914360 148.914902,53.582813 150.098846,53.281258 
	C150.602310,59.407845 150.858002,65.503624 150.984787,71.602089 
	C150.999954,72.331177 150.480331,73.246849 149.925705,73.783859 
	C146.307022,77.287582 141.849014,76.281593 137.679077,75.562950 
	C134.181442,74.960159 133.145340,71.992058 133.107529,68.737526 
	C133.063110,64.913597 132.906754,61.075039 133.188431,57.271667 
	C133.290283,55.896572 134.518524,54.604900 135.232773,53.275162 
	C136.055618,54.666412 137.440292,56.000458 137.588959,57.460350 
	C137.940857,60.916622 137.848053,64.440079 137.666306,67.922356 
	C137.498520,71.136864 138.737961,72.438980 141.981445,72.342697 
	C144.938538,72.254921 147.275375,72.008881 147.125443,68.112457 
	C146.959366,63.796078 147.106445,59.467644 147.118713,54.695183 
z"/>
<path fill="#2CBFD9" opacity="1.000000" stroke="none" 
	d="
M160.694885,53.368217 
	C163.527542,53.251804 166.040405,53.309406 168.945984,53.363480 
	C172.042801,54.878441 174.514069,56.639088 173.779099,60.251743 
	C173.597809,61.142788 172.490738,61.845482 171.809235,62.634758 
	C171.172134,61.995438 170.031525,61.395470 169.978012,60.710541 
	C169.569458,55.482662 165.648941,57.080791 162.841385,57.118252 
	C159.231445,57.166420 160.165680,60.188789 160.038452,62.361221 
	C159.951187,63.851185 159.966843,65.352890 160.034714,66.844879 
	C160.135040,69.050323 159.306686,72.004189 162.810028,72.180046 
	C165.679840,72.324104 169.509720,73.716042 169.965683,68.567886 
	C170.021759,67.934738 171.220718,67.402809 171.890060,66.823967 
	C172.545349,67.616310 173.571167,68.330338 173.759476,69.221359 
	C173.980713,70.268311 173.785080,71.656212 173.232498,72.571648 
	C170.280075,77.462807 165.374939,76.129417 161.082108,75.797768 
	C157.414276,75.514412 155.793716,72.861519 155.951324,69.109329 
	C156.090668,65.792580 155.916824,62.463459 156.021622,59.144238 
	C156.111740,56.290653 157.139282,54.020882 160.694885,53.368217 
z"/>
<path fill="#26BDD8" opacity="1.000000" stroke="none" 
	d="
M236.990997,67.971100 
	C236.990860,65.834541 236.906677,64.164909 237.007996,62.506615 
	C237.222275,58.999668 236.421066,56.909546 232.132950,56.887211 
	C227.960495,56.865479 226.950150,58.661274 227.119049,62.317581 
	C227.287842,65.971062 227.250763,69.645226 227.051880,73.296593 
	C227.002792,74.197701 225.975861,75.045555 225.398453,75.917892 
	C224.605652,75.074661 223.158432,74.254211 223.128143,73.384438 
	C222.954666,68.401665 222.804871,63.378120 223.264862,58.425804 
	C223.638168,54.406754 227.072708,52.989464 233.696762,53.370285 
	C237.535538,53.590973 240.736618,54.750313 240.934326,59.246387 
	C241.131577,63.732090 241.132614,68.239449 240.906097,72.721458 
	C240.850616,73.819458 239.571991,74.855644 238.855713,75.920250 
	C238.236084,74.925926 237.307388,73.998779 237.073044,72.920708 
	C236.762024,71.489861 236.992950,69.941208 236.990997,67.971100 
z"/>
<path fill="#36C2DB" opacity="1.000000" stroke="none" 
	d="
M184.087723,57.698296 
	C183.802277,61.394180 183.480972,64.752266 183.827713,68.039902 
	C183.992508,69.602432 185.423126,71.035149 186.295303,72.517853 
	C186.744583,73.281624 187.226715,74.026070 187.694000,74.779243 
	C186.883163,75.197273 186.077530,75.960930 185.260605,75.973198 
	C181.816559,76.024925 179.422104,74.485542 179.175858,70.812889 
	C178.975647,67.826950 179.314972,64.797943 179.018402,61.827641 
	C178.799988,59.640091 177.941422,57.516453 177.162842,54.593723 
	C177.547333,53.644501 178.247742,51.598564 179.214447,49.687317 
	C179.592896,48.939060 180.559280,48.050674 181.275345,48.035233 
	C181.974304,48.020161 182.785217,48.955788 183.387833,49.618721 
	C184.552902,50.900440 185.647308,52.252995 186.686386,53.639599 
	C187.133911,54.236816 187.726425,55.542561 187.649567,55.592213 
	C186.603668,56.267883 185.451782,56.779503 184.087723,57.698296 
z"/>
<path fill="#2CBFD9" opacity="1.000000" stroke="none" 
	d="
M69.644119,53.350571 
	C70.868599,53.964184 71.710052,54.571308 72.551514,55.178429 
	C71.733429,55.788597 70.838669,57.004101 70.109558,56.911758 
	C64.954033,56.258789 64.995758,59.463531 65.142303,63.046825 
	C65.277367,66.349678 65.309593,69.673225 65.072830,72.965057 
	C64.999054,73.990814 63.901215,74.942924 63.272171,75.928757 
	C62.509533,74.904045 61.142979,73.910225 61.088692,72.849274 
	C60.852322,68.229813 60.865322,63.585838 61.039112,58.960217 
	C61.242298,53.552212 65.365097,53.533718 69.644119,53.350571 
z"/>
<path fill="#2EC0DA" opacity="1.000000" stroke="none" 
	d="
M194.711197,75.285233 
	C193.350403,74.735558 191.328369,73.865646 191.271637,72.882362 
	C190.957428,67.435661 190.994080,61.955837 191.230988,56.501278 
	C191.277405,55.432457 192.733185,54.424843 193.538925,53.388996 
	C194.083389,54.443195 195.082916,55.491272 195.097198,56.552612 
	C195.179565,62.670887 195.028976,68.792297 194.711197,75.285233 
z"/>
<path fill="#26BDD8" opacity="1.000000" stroke="none" 
	d="
M80.008987,63.071487 
	C80.000282,66.886925 80.118286,70.225739 79.893982,73.541389 
	C79.837753,74.372574 78.681740,75.129349 78.031158,75.920319 
	C77.358116,75.154495 76.122231,74.403542 76.101540,73.620483 
	C75.943268,67.630463 75.946800,61.631981 76.122841,55.642685 
	C76.144417,54.908695 77.483818,54.213444 78.212509,53.500240 
	C78.796104,54.198071 79.807686,54.852547 79.883575,55.601803 
	C80.117424,57.910511 79.993752,60.255428 80.008987,63.071487 
z"/>
<path fill="#36C2DB" opacity="1.000000" stroke="none" 
	d="
M115.432785,68.362663 
	C116.264137,66.750061 117.288712,65.453423 118.313293,64.156784 
	C119.024078,65.421112 120.596664,66.992287 120.277115,67.889740 
	C119.459251,70.186737 117.559341,70.596443 115.432785,68.362663 
z"/>
<path fill="#36C2DB" opacity="1.000000" stroke="none" 
	d="
M76.649323,51.032349 
	C76.530174,49.279060 76.731087,47.679073 76.931999,46.079090 
	C78.218895,46.762680 79.505791,47.446270 80.792686,48.129860 
	C79.518250,49.148457 78.243820,50.167053 76.649323,51.032349 
z"/>
<path fill="#FEFFFF" opacity="1.000000" stroke="none" 
	d="
M206.306305,71.888657 
	C205.584305,67.504395 205.051208,63.273518 205.242065,59.075558 
	C205.275940,58.330414 208.330276,57.188503 209.973206,57.216225 
	C211.336411,57.239227 213.393372,58.432976 213.854919,59.612232 
	C214.533020,61.344711 214.079880,63.526340 214.080078,65.516617 
	C214.080719,72.590500 214.076141,72.590500 206.306305,71.888657 
z"/>
</svg>