<?xml version="1.0" standalone="no"?>
<!DOCTYPE svg PUBLIC "-//W3C//DTD SVG 20010904//EN"
 "http://www.w3.org/TR/2001/REC-SVG-20010904/DTD/svg10.dtd">
<svg version="1.0" xmlns="http://www.w3.org/2000/svg"
 width="3828.000000pt" height="1636.000000pt" viewBox="0 0 3828.000000 1636.000000"
 preserveAspectRatio="xMidYMid meet">

<g transform="translate(0.000000,1636.000000) scale(0.100000,-0.100000)"
fill="#000000" stroke="none">
<path d="M1222 16278 c-16 -46 -44 -128 -62 -183 -18 -55 -66 -197 -106 -315
-40 -118 -84 -251 -97 -295 -14 -44 -47 -145 -75 -225 -27 -80 -61 -181 -75
-225 -14 -44 -44 -132 -67 -195 -24 -63 -47 -133 -53 -155 -9 -35 -35 -115
-124 -370 -14 -38 -31 -97 -39 -129 -8 -32 -21 -73 -29 -90 -20 -45 -60 -160
-109 -321 -24 -77 -61 -185 -81 -240 -20 -55 -46 -129 -57 -165 -32 -103 -87
-267 -125 -370 -19 -52 -41 -120 -48 -150 -8 -30 -28 -95 -44 -144 -28 -80
-31 -101 -30 -205 l1 -116 33 70 c19 39 34 77 34 86 1 14 128 311 151 351 6
10 10 25 10 34 0 16 48 129 111 261 16 34 32 77 36 95 3 18 14 49 24 68 31 63
129 289 129 300 0 5 32 81 71 167 39 87 77 178 86 203 8 25 23 63 33 85 10 22
30 67 45 100 15 33 44 107 65 165 21 58 62 157 90 220 29 63 55 129 59 145 5
17 17 50 28 75 69 151 123 278 123 287 0 10 18 54 67 163 14 30 32 73 41 95 8
22 21 49 29 60 7 11 13 28 13 38 0 17 21 69 90 222 39 87 60 138 60 148 0 5
34 86 75 180 41 93 75 175 75 182 0 8 16 48 35 89 19 42 35 78 35 81 0 3 -90
5 -199 5 l-199 0 -30 -82z"/>
<path d="M1741 16305 c-12 -31 -21 -58 -21 -60 0 -4 -53 -125 -116 -263 -13
-29 -24 -59 -24 -67 0 -8 -11 -38 -24 -67 -71 -156 -114 -256 -120 -278 -10
-33 -58 -152 -67 -165 -4 -5 -20 -41 -35 -80 -15 -38 -33 -79 -41 -90 -7 -11
-13 -28 -13 -39 0 -10 -13 -48 -30 -83 -16 -34 -30 -65 -30 -68 0 -3 -15 -38
-34 -78 -18 -40 -41 -95 -51 -122 -15 -47 -78 -195 -131 -312 -13 -28 -24 -57
-24 -63 0 -21 -93 -202 -106 -207 -22 -8 -94 -104 -87 -116 3 -6 1 -7 -5 -3
-7 4 -14 -4 -18 -21 -4 -15 -16 -42 -27 -60 -14 -24 -19 -54 -20 -107 -1 -41
-5 -72 -9 -69 -5 2 -8 -12 -8 -31 0 -19 -5 -38 -10 -41 -6 -4 -8 -10 -6 -14
11 -17 -28 -121 -128 -344 -14 -32 -26 -64 -26 -71 0 -8 -29 -79 -64 -158 -35
-78 -73 -172 -86 -208 -12 -36 -35 -92 -50 -125 -72 -156 -100 -224 -100 -242
0 -10 -6 -27 -14 -38 -7 -11 -17 -31 -21 -44 -4 -14 -22 -56 -40 -95 -67 -146
-85 -189 -85 -202 0 -7 -16 -47 -35 -90 l-35 -76 0 -2369 0 -2369 2207 2 2207
3 26 75 c15 41 41 104 57 140 58 127 113 268 113 293 0 4 -785 7 -1745 7
l-1745 0 -62 25 c-44 18 -85 45 -136 93 -72 67 -86 90 -123 207 -6 18 -9 1157
-9 2941 0 2882 0 2912 20 2955 11 24 20 52 20 62 0 19 100 120 162 163 37 26
59 33 178 54 36 6 1114 10 3051 10 l2995 0 17 65 c9 36 24 95 33 133 24 103
80 313 118 447 15 50 35 131 46 180 11 50 29 119 39 155 26 89 107 393 120
455 13 56 92 345 122 444 10 35 19 67 19 72 0 5 -1236 9 -2984 9 l-2985 0 -20
-55z m2249 -575 c11 -13 20 -27 20 -31 0 -13 -42 -21 -53 -10 -6 6 -26 11 -44
11 -40 0 -53 -21 -53 -89 0 -77 47 -115 92 -74 24 21 23 31 -4 35 -17 2 -24
11 -26 31 -3 26 -2 27 47 27 l51 0 0 -49 c0 -87 -66 -137 -145 -111 -50 16
-69 58 -70 145 0 107 36 149 123 141 29 -2 49 -11 62 -26z m-1329 -120 l46
-140 -33 0 c-28 0 -35 5 -40 25 -6 23 -11 25 -59 25 -48 0 -53 -2 -59 -25 -5
-19 -13 -25 -35 -25 l-29 0 15 53 c9 28 29 91 47 140 l30 87 36 0 35 -1 46
-139z m129 43 c0 -76 4 -100 17 -115 20 -22 41 -23 65 -1 15 13 18 32 18 115
l0 98 30 0 30 0 0 -86 c0 -142 -24 -192 -97 -200 -88 -11 -123 43 -123 189 l0
97 30 0 30 0 0 -97z m383 85 c53 -28 64 -92 22 -134 l-25 -25 31 -54 31 -55
-39 0 c-38 0 -41 2 -63 50 -16 33 -30 50 -42 50 -15 0 -18 -8 -18 -50 l0 -50
-35 0 -35 0 0 140 0 140 76 0 c41 0 85 -5 97 -12z m278 -118 c26 -69 48 -131
48 -137 1 -8 -11 -13 -29 -13 -23 0 -33 6 -40 25 -8 22 -15 25 -60 25 -45 0
-50 -2 -56 -25 -5 -21 -12 -25 -40 -25 -19 0 -34 2 -34 5 0 3 15 45 34 93 18
48 41 109 51 135 17 44 21 48 48 45 29 -3 33 -9 78 -128z m186 63 c22 -38 43
-77 46 -88 3 -11 5 19 6 68 l1 87 35 0 35 0 -2 -137 -3 -138 -33 -3 c-24 -2
-34 1 -38 15 -6 21 -15 37 -61 112 l-33 55 0 -92 0 -92 -30 0 -30 0 0 140 0
140 33 0 c29 0 36 -6 74 -67z m576 40 c17 -33 63 -174 72 -220 6 -31 5 -33
-19 -33 -19 0 -29 7 -36 25 -8 22 -15 25 -59 25 -44 0 -49 -3 -55 -25 -5 -21
-12 -25 -42 -25 -41 0 -42 -9 17 144 22 55 39 108 39 118 0 14 8 18 35 18 28
0 37 -5 48 -27z m301 6 c29 -23 35 -63 12 -94 -12 -17 -12 -22 5 -44 26 -33
24 -58 -10 -92 -28 -27 -34 -29 -110 -29 l-81 0 0 140 0 140 79 0 c64 0 83 -4
105 -21z m230 -37 c10 -31 31 -90 47 -130 16 -41 29 -78 29 -83 0 -5 -14 -9
-30 -9 -23 0 -33 6 -42 25 -10 21 -18 25 -58 25 -40 0 -48 -4 -58 -25 -8 -17
-20 -25 -38 -25 -24 0 -25 2 -19 33 8 37 48 154 72 210 14 31 22 37 47 37 29
0 32 -4 50 -58z m303 19 c41 -61 25 -203 -25 -230 -12 -6 -52 -11 -91 -11
l-71 0 0 140 0 141 82 -3 c81 -3 83 -3 105 -37z m344 29 c34 -19 52 -66 39
-105 -15 -46 -34 -59 -94 -65 l-51 -5 -3 -47 c-3 -45 -5 -48 -31 -48 -18 0
-31 7 -35 17 -4 9 -6 72 -5 140 l1 123 80 0 c43 0 88 -5 99 -10z m270 -19 c36
-37 37 -70 3 -111 l-27 -31 27 -48 c14 -27 26 -51 26 -55 0 -3 -13 -6 -30 -6
-26 0 -33 7 -55 50 -20 40 -30 50 -50 50 -23 0 -25 -3 -25 -50 0 -47 -2 -50
-25 -50 l-25 0 0 140 0 140 76 0 c70 0 78 -2 105 -29z m269 4 c0 -24 -2 -25
-71 -25 l-70 0 3 -27 c3 -27 6 -28 61 -31 56 -3 57 -4 57 -32 0 -30 0 -30 -60
-30 -57 0 -60 -1 -60 -25 0 -23 3 -24 68 -27 65 -3 67 -4 70 -30 l3 -28 -95 0
-96 0 0 140 0 140 95 0 c95 0 95 0 95 -25z m128 -20 c12 -25 22 -50 22 -55 0
-5 5 -21 11 -37 11 -28 12 -27 50 55 36 78 40 83 66 80 l28 -3 0 -135 0 -135
-25 0 c-24 0 -25 3 -30 69 l-5 70 -24 -52 c-19 -41 -29 -52 -48 -52 -13 0 -23
6 -23 14 0 8 -11 34 -25 57 l-25 44 0 -77 0 -78 -30 0 -30 0 0 140 0 140 33 0
c29 0 36 -5 55 -45z m302 -95 l0 -140 -35 0 -35 0 0 140 0 140 35 0 35 0 0
-140z m240 115 c0 -24 -2 -25 -65 -25 l-65 0 0 -30 c0 -30 0 -30 56 -30 54 0
55 0 52 -27 -3 -26 -7 -28 -55 -31 -49 -3 -53 -5 -53 -28 0 -23 3 -24 65 -24
l65 0 0 -30 0 -30 -95 0 -95 0 0 140 0 140 95 0 c95 0 95 0 95 -25z m235 -2
c30 -34 32 -63 4 -112 l-20 -37 20 -48 c12 -26 21 -50 21 -52 0 -2 -13 -4 -29
-4 -24 0 -32 7 -52 48 -17 32 -31 48 -46 50 -21 3 -23 0 -23 -47 0 -50 -1 -51
-30 -51 l-30 0 0 140 0 140 80 0 c74 0 81 -2 105 -27z m-4065 -588 l0 -115 65
0 65 0 0 -30 0 -30 -100 0 -100 0 0 145 0 145 35 0 35 0 0 -115z m350 90 c0
-23 -4 -24 -62 -27 -63 -3 -63 -3 -63 -33 0 -29 1 -30 53 -33 48 -3 53 -5 50
-24 -3 -18 -10 -21 -53 -22 -51 -1 -52 -2 -46 -56 1 -5 28 -10 61 -10 l60 0 0
-30 0 -30 -95 0 -95 0 0 145 0 145 95 0 c94 0 95 0 95 -25z m221 -55 c27 -69
59 -179 59 -201 0 -5 -11 -9 -26 -9 -19 0 -28 7 -35 30 -10 28 -15 30 -59 30
-46 0 -49 -2 -55 -30 -6 -26 -11 -30 -41 -30 -19 0 -34 4 -34 8 0 4 18 55 40
112 22 58 40 113 40 122 0 38 12 49 48 46 33 -3 36 -6 63 -78z m271 63 c30
-35 30 -43 2 -53 -21 -8 -31 -7 -44 5 -20 18 -51 20 -68 3 -16 -16 -16 -140 0
-156 27 -27 78 -7 78 30 0 13 -8 18 -25 18 -18 0 -25 5 -25 20 0 18 7 20 60
20 l60 0 0 -30 c0 -42 -23 -94 -51 -114 -39 -27 -103 -21 -141 13 -33 29 -33
30 -33 119 0 82 2 93 24 116 21 23 33 26 86 26 47 0 66 -4 77 -17z m138 -72
c0 -113 10 -141 49 -141 38 0 41 11 41 131 l0 99 35 0 35 0 0 -105 c0 -151
-21 -185 -115 -185 -38 0 -52 5 -76 29 -29 29 -29 31 -29 145 l0 116 30 0 30
0 0 -89z m400 64 c0 -23 -4 -24 -62 -27 -63 -3 -63 -3 -63 -33 0 -29 2 -30 53
-33 44 -3 52 -6 52 -23 0 -16 -7 -19 -39 -19 -57 0 -71 -8 -71 -41 l0 -29 65
0 65 0 0 -30 0 -30 -90 0 -90 0 0 145 0 145 90 0 c89 0 90 0 90 -25z m593 12
c16 -11 16 -14 2 -35 -13 -17 -20 -20 -35 -12 -29 15 -80 12 -86 -5 -10 -24
13 -42 60 -49 85 -13 113 -82 60 -145 -23 -28 -31 -31 -84 -31 -47 0 -64 5
-85 23 -27 22 -27 22 -7 40 17 15 24 16 42 7 11 -6 38 -10 58 -8 32 3 37 6 37
27 0 21 -7 26 -55 37 -56 13 -90 41 -90 74 0 26 19 73 33 82 20 12 132 9 150
-5z m267 -12 c0 -24 -2 -25 -65 -25 l-65 0 0 -35 0 -35 55 0 c48 0 55 -2 55
-20 0 -18 -7 -20 -55 -20 l-55 0 0 -35 0 -35 65 0 65 0 0 -30 0 -31 -97 3 -98
3 -3 143 -3 142 101 0 100 0 0 -25z m225 -100 c64 -182 62 -165 23 -165 -28 0
-35 5 -45 30 -10 27 -15 30 -56 30 -41 0 -46 -3 -56 -30 -8 -24 -16 -30 -40
-30 -40 0 -39 9 4 119 19 48 35 90 35 93 0 3 7 22 15 42 14 33 19 37 47 34 29
-3 32 -7 73 -123z m266 115 c18 -10 18 -12 3 -35 -13 -20 -20 -23 -35 -14 -11
6 -34 9 -52 7 -24 -2 -33 -8 -35 -25 -3 -18 4 -24 35 -32 21 -6 42 -11 46 -11
5 0 22 -9 38 -21 39 -27 40 -75 2 -119 -26 -31 -29 -32 -93 -28 -80 4 -109 24
-88 58 9 15 19 19 33 14 11 -4 40 -7 65 -8 41 -1 45 1 45 24 0 20 -6 25 -40
32 -74 15 -94 28 -101 63 -6 34 1 71 18 93 13 15 131 16 159 2z m254 -4 c23
-17 35 -99 25 -180 -9 -75 -31 -96 -102 -96 -65 0 -102 34 -112 102 -11 73 13
168 46 181 27 11 125 7 143 -7z m161 -16 c39 -81 49 -101 66 -122 17 -23 18
-22 18 65 l0 87 30 0 30 0 0 -145 0 -145 -33 0 c-31 0 -35 4 -77 86 -25 47
-48 88 -52 91 -5 2 -8 -37 -8 -87 l0 -91 -27 3 -28 3 -3 143 -3 143 38 -3 c28
-2 40 -9 49 -28z m432 -112 l-3 -143 -32 -3 -33 -3 0 112 0 111 -25 -16 -25
-16 0 34 c0 43 29 66 82 66 l39 0 -3 -142z m263 110 c17 -28 20 -47 17 -121
-3 -83 -5 -90 -31 -113 -36 -31 -98 -33 -127 -4 -27 27 -33 57 -29 149 5 102
20 121 96 121 49 0 55 -2 74 -32z m-2186 -138 c0 -24 -3 -25 -68 -28 -53 -2
-68 0 -73 13 -14 36 3 46 73 43 65 -3 68 -4 68 -28z"/>
<path d="M2562 15621 c-16 -52 -16 -51 18 -51 17 0 30 3 30 6 0 17 -24 84 -30
84 -4 0 -12 -17 -18 -39z"/>
<path d="M3070 15666 c0 -33 3 -36 28 -36 38 0 54 13 50 41 -2 20 -10 25 -40
27 -37 3 -38 3 -38 -32z"/>
<path d="M3362 15632 c-17 -55 -15 -62 13 -62 14 0 25 1 25 3 -1 1 -7 24 -14
50 l-12 49 -12 -40z"/>
<path d="M4152 15633 c-17 -58 -16 -63 19 -63 33 0 33 3 5 74 l-12 29 -12 -40z"/>
<path d="M4400 15670 c0 -27 3 -30 30 -30 18 0 33 7 38 18 15 27 3 42 -34 42
-31 0 -34 -3 -34 -30z"/>
<path d="M4400 15554 c0 -34 1 -35 31 -32 43 4 61 34 35 54 -11 8 -30 14 -43
14 -20 0 -23 -5 -23 -36z"/>
<path d="M4682 15641 c-19 -54 -16 -71 13 -71 29 0 33 25 11 75 l-12 30 -12
-34z"/>
<path d="M4920 15615 l0 -85 33 0 c46 0 57 15 57 78 0 72 -12 92 -55 92 l-35
0 0 -85z"/>
<path d="M5280 15665 c0 -34 1 -35 39 -35 42 0 57 17 46 51 -5 14 -16 19 -46
19 -38 0 -39 -1 -39 -35z"/>
<path d="M5532 15668 c3 -31 5 -33 42 -33 42 0 64 20 53 49 -5 12 -19 16 -52
16 -46 0 -46 0 -43 -32z"/>
<path d="M6710 15664 c0 -34 1 -35 36 -32 71 6 74 68 4 68 -39 0 -40 -1 -40
-36z"/>
<path d="M3261 15129 c-16 -46 -14 -49 18 -49 29 0 30 1 19 33 -16 48 -24 52
-37 16z"/>
<path d="M5148 15121 l-16 -41 24 0 c25 0 31 24 15 64 -6 15 -10 11 -23 -23z"/>
<path d="M5641 15186 c-7 -9 -11 -42 -9 -88 l3 -73 37 -3 c34 -3 37 -1 48 34
14 40 8 107 -10 129 -16 19 -54 19 -69 1z"/>
<path d="M6522 15201 c-17 -10 -20 -167 -5 -182 7 -7 19 -9 27 -6 13 5 16 23
16 90 0 86 -11 115 -38 98z"/>
<path d="M7801 16238 c-18 -68 -42 -161 -53 -208 -11 -47 -45 -175 -76 -285
-30 -110 -64 -238 -75 -285 -20 -89 -102 -394 -143 -539 -13 -46 -24 -93 -24
-105 0 -11 -23 -100 -50 -195 -27 -96 -48 -176 -46 -178 5 -5 63 125 94 212
16 44 41 105 56 136 32 72 96 247 96 266 0 8 34 110 75 226 41 116 75 217 75
225 0 8 32 103 71 211 38 108 74 214 79 236 7 34 38 126 124 363 l15 42 -92 0
-93 0 -33 -122z"/>
<path d="M8910 14530 l0 -1360 1360 0 1360 0 0 1360 0 1360 -1360 0 -1360 0 0
-1360z m2630 0 l0 -1270 -1270 0 -1270 0 0 1270 0 1270 1270 0 1270 0 0 -1270z"/>
<path d="M1092 14354 c-62 -22 -96 -44 -162 -108 -106 -103 -123 -175 -118
-501 l3 -220 3842 -3 3843 -2 0 252 c-1 268 -9 337 -49 401 -30 49 -124 133
-184 164 l-52 28 -3540 2 c-3147 2 -3545 0 -3583 -13z"/>
<path d="M10642 11876 c-127 -34 -144 -208 -26 -269 16 -8 56 -20 89 -27 33
-7 66 -17 73 -22 16 -14 15 -53 -1 -67 -40 -32 -153 -19 -204 25 -15 13 -31
24 -35 24 -5 0 -8 -26 -8 -58 l0 -58 48 -17 c64 -23 192 -22 252 2 76 31 110
121 74 197 -24 50 -52 68 -148 93 -47 13 -89 27 -92 33 -3 5 -3 20 0 33 13 52
127 54 197 4 15 -10 30 -19 33 -19 3 0 6 26 6 58 l0 58 -58 12 c-71 15 -142
14 -200 -2z"/>
<path d="M9682 11638 l3 -243 137 0 c79 1 146 6 160 12 13 6 31 14 40 17 30 9
58 67 58 117 0 53 -23 90 -69 109 l-30 12 35 34 c46 46 47 99 5 146 l-29 33
-156 3 -156 4 2 -244z m211 153 c53 -20 45 -75 -13 -92 -56 -17 -70 -8 -70 44
0 24 3 47 7 50 9 10 48 9 76 -2z m49 -208 c22 -19 23 -52 4 -78 -11 -15 -27
-19 -72 -20 l-59 0 -3 58 -3 57 57 0 c39 0 63 -5 76 -17z"/>
<path d="M10216 11760 c-70 -22 -95 -83 -56 -133 21 -27 26 -47 11 -47 -25 0
-41 -34 -41 -85 0 -49 3 -56 32 -76 43 -31 126 -37 178 -14 35 16 40 16 61 1
22 -15 109 -23 109 -10 0 4 -18 23 -40 43 l-40 36 14 40 c9 22 15 50 16 63 0
19 -5 22 -40 22 -39 0 -40 -1 -40 -35 l0 -36 -35 28 c-19 15 -35 31 -35 34 0
3 11 11 25 17 14 6 33 27 42 47 14 29 15 38 4 59 -22 41 -106 65 -165 46z m72
-63 c7 -33 -7 -67 -24 -60 -22 8 -34 44 -22 66 12 22 42 18 46 -6z m1 -187
c39 -46 40 -50 22 -60 -27 -14 -68 3 -82 34 -12 25 -5 76 10 76 4 0 27 -22 50
-50z"/>
<path d="M9867 11323 c-11 -10 -8 -61 3 -68 6 -3 19 -3 30 0 16 5 19 12 13 33
-8 35 -30 51 -46 35z"/>
<path d="M10486 11323 c-11 -11 -7 -41 7 -46 10 -4 10 -6 0 -6 -18 -1 -16 -21
1 -21 24 0 29 20 11 40 -12 13 -13 19 -4 22 9 3 9 7 2 11 -5 4 -13 4 -17 0z"/>
<path d="M10546 11309 c-16 -24 -12 -45 11 -53 33 -13 57 36 31 62 -17 17 -25
15 -42 -9z m37 -14 c8 -18 -11 -31 -25 -17 -11 11 -3 32 12 32 4 0 10 -7 13
-15z"/>
<path d="M10709 11314 c-11 -14 -10 -18 6 -30 18 -14 18 -14 0 -14 -15 0 -16
-3 -7 -12 18 -18 40 6 23 25 -6 8 -9 22 -5 31 8 20 0 21 -17 0z"/>
<path d="M9942 11295 c-17 -37 -15 -47 8 -33 17 11 22 10 30 -2 13 -20 12 -10
-1 29 -13 38 -22 39 -37 6z"/>
<path d="M10008 11303 c-3 -10 -1 -27 3 -38 7 -19 8 -19 8 -1 1 18 2 18 21 1
21 -19 29 -8 8 13 -8 8 -8 15 2 27 8 9 8 15 2 15 -6 0 -14 -5 -18 -11 -5 -8
-9 -8 -14 1 -5 8 -9 6 -12 -7z"/>
<path d="M10080 11285 c0 -28 4 -35 20 -35 11 0 20 5 20 10 0 6 -4 10 -10 10
-5 0 -10 11 -10 25 0 14 -4 25 -10 25 -5 0 -10 -16 -10 -35z"/>
<path d="M10133 11285 c0 -22 2 -30 4 -17 2 12 2 30 0 40 -3 9 -5 -1 -4 -23z"/>
<path d="M10161 11310 c0 -8 2 -25 5 -38 7 -23 7 -23 25 -3 20 21 26 51 10 51
-5 0 -12 -10 -16 -22 l-7 -23 -8 25 c-4 14 -8 18 -9 10z"/>
<path d="M10221 11290 c-7 -17 -11 -34 -7 -37 6 -7 28 46 24 59 -2 4 -9 -6
-17 -22z"/>
<path d="M10266 11289 c-20 -40 -20 -45 -1 -29 12 10 18 10 30 0 19 -16 19 -1
1 35 l-14 26 -16 -32z"/>
<path d="M10331 11288 c-1 -32 2 -38 19 -38 11 0 20 5 20 10 0 6 -6 10 -14 10
-8 0 -17 12 -19 28 -3 22 -4 20 -6 -10z"/>
<path d="M10621 11283 c1 -23 3 -29 6 -16 3 15 9 20 20 16 13 -5 14 -3 4 15
-18 33 -31 26 -30 -15z"/>
<path d="M10667 11293 c-6 -31 0 -46 14 -38 12 8 12 65 0 65 -5 0 -11 -12 -14
-27z"/>
<path d="M10410 11271 c0 -12 5 -21 10 -21 6 0 10 6 10 14 0 8 -4 18 -10 21
-5 3 -10 -3 -10 -14z"/>
<path d="M9774 11186 c-3 -19 -1 -43 5 -53 8 -14 10 -8 11 35 0 60 -6 67 -16
18z"/>
<path d="M10814 11172 c1 -28 4 -48 9 -45 10 6 9 65 -2 81 -5 8 -8 -6 -7 -36z"/>
<path d="M9847 11196 c-21 -16 -22 -33 -3 -52 21 -20 28 -17 16 7 -9 15 -8 24
1 35 16 20 8 25 -14 10z"/>
<path d="M9890 11170 c0 -22 3 -40 8 -40 4 0 6 18 4 40 -2 22 -6 40 -8 40 -2
0 -4 -18 -4 -40z"/>
<path d="M9938 11171 c-2 -25 0 -40 7 -38 14 5 19 57 7 69 -6 6 -11 -5 -14
-31z"/>
<path d="M9970 11176 c0 -19 3 -37 8 -40 4 -2 6 13 4 35 -5 48 -12 51 -12 5z"/>
<path d="M10019 11175 c-6 -40 -4 -53 7 -43 3 3 4 23 2 44 l-3 39 -6 -40z"/>
<path d="M10051 11169 c1 -24 4 -34 6 -21 5 27 11 28 40 0 l23 -21 -1 44 c-1
39 -2 41 -8 14 l-7 -30 -27 29 -27 29 1 -44z"/>
<path d="M10210 11170 c0 -22 3 -40 8 -40 4 0 6 18 4 40 -2 22 -6 40 -8 40 -2
0 -4 -18 -4 -40z"/>
<path d="M10290 11170 c0 -22 4 -40 10 -40 5 0 7 7 3 16 -4 12 -2 15 8 12 8
-3 13 -11 12 -17 -2 -6 1 -11 7 -11 5 0 8 15 6 33 -3 17 -5 35 -5 40 -1 4 -10
7 -21 7 -17 0 -20 -7 -20 -40z m30 10 c0 -5 -4 -10 -10 -10 -5 0 -10 5 -10 10
0 6 5 10 10 10 6 0 10 -4 10 -10z"/>
<path d="M10455 11200 c-4 -6 -11 -8 -16 -5 -5 4 -9 -11 -8 -32 0 -21 3 -32 6
-25 4 10 8 10 19 1 17 -14 19 2 2 19 -9 9 -7 16 7 32 10 11 13 20 7 20 -6 0
-14 -5 -17 -10z"/>
<path d="M10490 11171 c0 -36 3 -41 23 -40 12 0 16 3 10 6 -7 2 -13 18 -13 33
0 16 -4 32 -10 35 -6 4 -10 -10 -10 -34z"/>
<path d="M10553 11170 c0 -25 2 -35 4 -22 2 12 2 32 0 45 -2 12 -4 2 -4 -23z"/>
<path d="M10648 11184 l-12 -25 -12 23 c-11 20 -13 21 -19 6 -4 -10 -11 -15
-16 -12 -5 3 -9 -6 -9 -20 0 -30 15 -34 25 -8 6 16 7 16 16 0 15 -28 26 -21
37 22 11 46 7 52 -10 14z"/>
<path d="M10687 11175 c-21 -45 -22 -42 13 -41 33 1 38 16 17 54 -13 22 -13
22 -30 -13z"/>
<path d="M10740 11171 c0 -23 5 -41 10 -41 6 0 10 15 10 34 0 19 -4 38 -10 41
-6 4 -10 -10 -10 -34z"/>
<path d="M10142 11175 c-17 -37 -16 -40 22 -41 l34 0 -16 33 c-19 40 -25 41
-40 8z"/>
<path d="M10366 11171 c-9 -16 -16 -31 -16 -33 0 -2 15 -3 34 -4 l35 0 -16 30
c-9 17 -17 33 -19 34 -1 2 -10 -10 -18 -27z"/>
<path d="M10181 11014 c0 -11 3 -14 6 -6 3 7 2 16 -1 19 -3 4 -6 -2 -5 -13z"/>
<path d="M10400 11006 c0 -31 6 -34 13 -6 3 11 1 23 -4 26 -5 3 -9 -6 -9 -20z"/>
<path d="M10200 11000 c0 -11 2 -20 4 -20 2 0 6 9 9 20 3 11 1 20 -4 20 -5 0
-9 -9 -9 -20z"/>
<path d="M10234 11005 c-4 -9 -4 -19 0 -22 3 -4 6 1 6 10 0 19 15 23 23 7 3
-6 4 -5 3 2 -4 19 -25 21 -32 3z"/>
<path d="M10307 11005 c-4 -8 -2 -17 2 -20 5 -2 11 4 14 15 6 23 -8 27 -16 5z"/>
<path d="M10351 10998 c1 -17 3 -18 6 -5 2 9 8 17 13 17 5 0 11 -8 14 -17 4
-14 4 -14 3 2 -3 30 -37 33 -36 3z"/>
<path d="M9910 10920 c-8 -5 -12 -10 -10 -12 3 -2 26 -22 51 -45 33 -29 44
-45 38 -55 -5 -7 -9 -50 -9 -95 0 -83 12 -113 45 -113 14 0 45 26 45 39 0 4
-4 11 -10 17 -5 5 -10 55 -11 111 -2 88 -5 103 -20 108 -9 3 -24 17 -33 30
-17 26 -58 33 -86 15z"/>
<path d="M9791 10809 c-6 -18 -16 -24 -44 -24 -49 -2 -64 -18 -72 -73 -11 -85
26 -131 87 -110 34 12 39 48 8 48 -25 0 -42 37 -28 63 12 23 39 22 45 -2 8
-31 35 -35 55 -9 22 30 36 16 40 -41 3 -51 26 -73 56 -55 14 9 16 23 13 80 -4
85 -13 98 -62 90 -35 -6 -38 -4 -41 21 -4 37 -44 45 -57 12z"/>
<path d="M10218 10824 c-5 -4 -8 -38 -8 -75 0 -59 -3 -70 -21 -80 -17 -9 -25
-8 -37 5 -13 12 -13 20 -4 41 14 31 32 33 32 3 0 -16 3 -19 11 -11 6 6 9 23 7
39 -2 21 -11 31 -32 39 -25 9 -31 6 -57 -23 -63 -70 -10 -179 68 -139 27 14
30 14 42 -4 7 -13 20 -19 34 -17 19 3 23 11 27 57 6 69 30 83 30 18 0 -66 33
-94 74 -64 16 11 17 18 7 53 -6 21 -11 53 -11 70 0 54 -44 68 -85 28 -13 -14
-15 -13 -15 10 0 26 1 26 80 26 47 0 80 4 80 10 0 6 -31 10 -72 10 -40 0 -89
3 -108 6 -19 3 -38 2 -42 -2z"/>
<path d="M10462 10817 c-6 -7 -10 -27 -10 -44 1 -17 -7 -47 -16 -67 -20 -43
-12 -84 18 -95 41 -16 76 13 76 61 0 29 6 33 34 22 10 -4 16 -18 16 -39 0 -38
18 -56 47 -49 24 7 40 37 24 42 -6 2 -11 31 -11 67 0 50 -4 66 -17 74 -13 8 8
10 80 11 58 0 97 4 97 10 0 6 -50 10 -130 10 -80 0 -130 -4 -130 -10 0 -5 15
-10 33 -11 17 0 26 -3 20 -6 -7 -2 -13 -21 -13 -40 0 -28 -3 -34 -16 -29 -9 3
-20 6 -25 6 -5 0 -9 15 -9 34 0 19 -3 41 -6 50 -7 19 -47 21 -62 3z m-15 -164
c-3 -10 -5 -4 -5 12 0 17 2 24 5 18 2 -7 2 -21 0 -30z"/>
<path d="M10826 10818 c-3 -7 -6 -20 -8 -28 -3 -10 -16 -14 -45 -12 -34 3 -44
-1 -67 -28 -34 -41 -35 -92 -1 -125 27 -28 37 -30 66 -15 25 14 24 36 -1 43
-36 9 -19 87 19 87 23 0 31 -19 31 -74 0 -42 13 -66 37 -66 23 0 29 34 23 130
-5 89 -6 95 -28 98 -12 2 -24 -3 -26 -10z"/>
<path d="M9680 10810 c0 -5 23 -10 50 -10 28 0 50 5 50 10 0 6 -22 10 -50 10
-27 0 -50 -4 -50 -10z"/>
<path d="M9860 10810 c0 -6 27 -10 60 -10 33 0 60 4 60 10 0 6 -27 10 -60 10
-33 0 -60 -4 -60 -10z"/>
<path d="M10060 10810 c0 -6 30 -10 70 -10 40 0 70 4 70 10 0 6 -30 10 -70 10
-40 0 -70 -4 -70 -10z"/>
<path d="M10890 10810 c0 -5 11 -10 25 -10 14 0 25 5 25 10 0 6 -11 10 -25 10
-14 0 -25 -4 -25 -10z"/>
<path d="M10795 10490 c66 -17 167 -51 220 -75 28 -12 62 -28 78 -34 15 -6 27
-18 27 -26 0 -25 -40 -192 -66 -278 -13 -43 -24 -86 -24 -96 0 -9 -13 -55 -29
-102 -27 -79 -38 -106 -97 -237 -13 -29 -24 -57 -24 -63 0 -14 -109 -209 -126
-227 -7 -6 -16 -22 -20 -35 -8 -27 -22 -37 -51 -37 -24 0 -31 14 -13 25 5 3
14 14 20 24 7 15 5 20 -10 24 -16 4 -18 2 -11 -12 7 -13 5 -17 -10 -18 -10 -1
-21 2 -24 7 -7 11 24 42 35 35 5 -3 10 1 13 7 3 10 7 10 19 0 13 -10 17 -10
21 2 4 9 1 18 -5 22 -7 4 -8 3 -4 -4 4 -7 3 -12 -3 -12 -19 0 -19 15 0 38 10
13 22 21 27 18 5 -3 8 6 6 20 -2 19 1 24 12 20 10 -4 13 -2 8 6 -11 18 -5 70
10 88 12 15 11 50 -3 50 -4 0 -12 -5 -19 -12 -8 -8 -15 -8 -27 2 -8 7 -15 10
-15 7 0 -3 -17 1 -37 10 -21 8 -49 17 -62 20 -14 2 -29 7 -34 10 -13 8 2 83
26 125 18 33 26 38 71 45 l51 8 6 50 c11 96 -5 172 -56 268 -47 87 -47 87 -86
87 -49 0 -57 -16 -30 -61 12 -19 21 -40 21 -46 0 -7 17 -39 37 -70 21 -32 36
-64 35 -71 -2 -8 2 -19 8 -27 16 -19 2 -67 -19 -63 -12 3 -16 14 -14 46 1 36
-1 43 -22 48 -47 12 -60 2 -59 -44 0 -24 -4 -42 -10 -42 -27 -1 -65 -62 -115
-185 -5 -11 -27 -59 -49 -106 -37 -79 -47 -91 -117 -145 -42 -32 -90 -67 -106
-78 -27 -17 -30 -23 -27 -65 3 -42 5 -46 31 -49 19 -2 27 1 27 12 0 9 -6 16
-12 16 -18 1 40 50 59 50 8 0 27 6 41 14 15 8 41 20 57 27 17 7 34 15 39 17 5
3 5 -1 1 -7 -5 -9 -2 -9 13 0 12 7 18 17 15 22 -3 5 -10 3 -15 -4 -8 -11 -9
-11 -5 1 2 8 12 15 22 15 22 0 46 35 28 42 -9 3 -5 15 13 39 32 41 68 45 119
12 26 -17 33 -28 29 -43 -9 -32 -55 -118 -76 -142 -25 -27 -20 -57 10 -61 23
-3 29 -16 13 -27 -6 -3 -8 -15 -6 -26 3 -16 1 -18 -8 -10 -32 26 -105 31 -239
16 -73 -9 -185 -21 -249 -27 l-116 -12 5 -183 c3 -101 2 -183 -1 -183 -9 0
-84 125 -90 151 -4 14 -17 41 -30 60 -12 19 -35 57 -51 84 -16 28 -30 51 -32
53 -3 4 -226 -16 -259 -23 -12 -3 -30 -25 -46 -57 -14 -29 -40 -82 -57 -118
-17 -36 -51 -103 -75 -150 -24 -47 -58 -114 -75 -150 -18 -36 -40 -76 -49 -89
l-17 -23 101 7 c151 11 165 15 188 57 22 41 32 44 187 54 l97 7 17 -37 c14
-27 24 -36 43 -36 34 0 365 31 369 35 2 1 4 25 5 53 2 28 5 54 8 56 3 3 64 12
136 20 126 14 211 38 227 65 16 26 23 6 25 -71 1 -45 3 -83 4 -84 1 -1 94 9
207 21 113 12 240 26 283 30 l77 7 0 99 0 99 -27 0 c-16 0 -86 -7 -158 -15
-71 -8 -136 -15 -142 -15 -10 0 -13 44 -13 186 0 158 3 190 17 215 10 16 20
29 23 29 11 0 152 292 192 400 48 128 119 370 150 508 20 92 20 96 2 109 -10
7 -25 13 -33 13 -9 0 -35 11 -58 24 -57 33 -195 76 -257 82 l-51 4 40 -10z
m-65 -1430 c0 -129 3 -170 13 -170 6 0 71 7 142 15 190 22 175 26 175 -44 0
-57 -1 -60 -27 -65 -53 -10 -249 -26 -351 -28 l-102 -3 0 227 0 227 28 4 c15
2 48 5 75 6 l47 1 0 -170z m-244 125 c31 -20 47 -85 42 -170 -8 -125 -42 -149
-241 -171 -183 -21 -172 -18 -183 -61 l-9 -38 -61 -3 -61 -3 -6 77 c-9 98 -9
248 -1 307 l7 46 63 6 c326 35 409 37 450 10z m-760 -113 c23 -37 51 -85 63
-107 12 -22 25 -47 30 -55 4 -8 23 -46 42 -85 18 -38 35 -73 37 -76 5 -11
-137 -10 -155 2 -13 8 -62 7 -180 -3 -89 -7 -160 -11 -157 -7 2 4 -25 4 -61 1
-36 -2 -65 -3 -65 0 0 2 22 49 48 104 27 54 61 126 76 159 48 105 59 113 156
123 47 5 94 10 105 10 14 1 32 -18 61 -66z"/>
<path d="M10188 9073 l-78 -4 0 -66 0 -66 48 6 c26 4 80 9 121 13 86 8 111 26
111 78 0 40 -12 47 -78 44 -26 -1 -82 -4 -124 -5z m87 -53 c4 -6 -6 -10 -22
-11 -15 -1 -43 -3 -62 -5 -45 -5 -32 7 16 16 55 11 61 11 68 0z"/>
<path d="M9569 9020 c-9 -5 -22 -24 -29 -42 -7 -18 -26 -59 -42 -92 l-31 -59
59 7 c142 17 154 19 154 31 0 7 -8 23 -19 36 -10 13 -30 48 -45 77 -14 28 -27
52 -29 52 -1 0 -9 -5 -18 -10z m41 -120 c0 -5 -16 -10 -35 -12 -40 -5 -41 -2
-19 30 15 22 17 22 35 6 10 -9 19 -20 19 -24z"/>
<path d="M9963 10223 c-7 -2 -13 -11 -13 -19 0 -12 4 -12 20 -2 31 20 26 35
-7 21z"/>
<path d="M10137 10223 c-12 -11 -8 -23 8 -23 8 0 15 7 15 15 0 16 -12 20 -23
8z"/>
<path d="M10263 10195 c-17 -19 -16 -25 2 -25 8 0 15 9 15 20 0 23 -1 24 -17
5z"/>
<path d="M9648 10163 c7 -3 16 -2 19 1 4 3 -2 6 -13 5 -11 0 -14 -3 -6 -6z"/>
<path d="M9598 10153 c-9 -2 -19 -11 -22 -19 -7 -19 1 -18 31 6 25 20 24 22
-9 13z"/>
<path d="M10110 10130 c0 -5 5 -10 10 -10 6 0 10 5 10 10 0 6 -4 10 -10 10 -5
0 -10 -4 -10 -10z"/>
<path d="M9740 10115 c-10 -12 -10 -15 4 -15 9 0 16 7 16 15 0 8 -2 15 -4 15
-2 0 -9 -7 -16 -15z"/>
<path d="M9956 10085 c-3 -9 0 -15 9 -15 16 0 20 16 6 24 -5 3 -11 -1 -15 -9z"/>
<path d="M10114 10086 c-3 -8 -1 -23 5 -33 10 -17 10 -17 11 3 0 11 5 25 12
32 9 9 8 12 -5 12 -10 0 -20 -6 -23 -14z"/>
<path d="M10060 10060 c0 -5 7 -7 15 -4 8 4 15 8 15 10 0 2 -7 4 -15 4 -8 0
-15 -4 -15 -10z"/>
<path d="M10310 10040 c0 -13 11 -13 30 0 12 8 11 10 -7 10 -13 0 -23 -4 -23
-10z"/>
<path d="M9800 10025 c0 -8 4 -15 8 -15 5 0 9 7 9 15 0 8 -4 15 -9 15 -4 0 -8
-7 -8 -15z"/>
<path d="M9809 9978 c-6 -12 -4 -48 2 -48 5 0 9 7 9 15 0 7 8 19 18 24 15 9
15 10 -5 11 -13 0 -24 -1 -24 -2z"/>
<path d="M9984 9969 c-3 -6 -1 -16 5 -22 8 -8 11 -5 11 11 0 24 -5 28 -16 11z"/>
<path d="M10250 9969 c0 -5 5 -7 10 -4 6 3 10 8 10 11 0 2 -4 4 -10 4 -5 0
-10 -5 -10 -11z"/>
<path d="M9750 9950 c-9 -6 -10 -10 -3 -10 6 0 15 5 18 10 8 12 4 12 -15 0z"/>
<path d="M9960 9940 c0 -5 5 -10 10 -10 6 0 10 5 10 10 0 6 -4 10 -10 10 -5 0
-10 -4 -10 -10z"/>
<path d="M10121 9914 c0 -11 3 -14 6 -6 3 7 2 16 -1 19 -3 4 -6 -2 -5 -13z"/>
<path d="M10146 9857 c-13 -10 -15 -18 -7 -37 l10 -25 0 24 c1 13 9 30 19 37
22 17 2 18 -22 1z"/>
<path d="M10086 9804 c-11 -8 -16 -14 -10 -14 13 0 39 18 34 24 -3 2 -14 -2
-24 -10z"/>
<path d="M9915 9760 c-10 -11 -13 -20 -8 -20 13 0 38 29 31 35 -3 3 -13 -4
-23 -15z"/>
<path d="M10872 9730 c-7 -11 -18 -20 -26 -20 -14 0 -31 -29 -21 -38 2 -3 10
0 17 6 7 6 17 10 22 9 9 -2 29 53 23 60 -2 1 -8 -7 -15 -17z"/>
<path d="M9864 9705 c-9 -21 -2 -26 13 -10 8 9 9 16 3 20 -6 3 -13 -1 -16 -10z"/>
<path d="M10792 9668 c-7 -9 -2 -20 17 -38 14 -14 23 -21 19 -16 -5 6 -8 18
-8 29 0 11 -4 15 -12 11 -8 -5 -9 -2 -5 9 8 20 3 22 -11 5z"/>
<path d="M10846 9665 c-3 -8 0 -17 6 -21 6 -4 8 -3 4 4 -3 5 -1 12 6 14 8 3 9
6 1 11 -6 4 -13 0 -17 -8z"/>
<path d="M11961 9188 c-19 -57 -58 -175 -88 -263 -30 -88 -72 -218 -93 -290
-22 -71 -44 -138 -49 -150 -14 -26 -54 -143 -97 -284 -19 -62 -41 -130 -48
-150 -7 -20 -35 -99 -61 -176 -26 -77 -74 -217 -106 -311 -33 -93 -59 -176
-59 -182 0 -9 79 -12 320 -12 l320 0 0 960 c0 528 -1 960 -3 960 -2 0 -18 -46
-36 -102z"/>
<path d="M11353 9066 c4 -10 7 -20 7 -22 0 -11 39 -2 50 11 10 12 10 15 -1 15
-8 0 -25 3 -38 7 -20 5 -23 3 -18 -11z"/>
<path d="M11420 9015 c0 -9 5 -15 11 -13 6 2 11 8 11 13 0 5 -5 11 -11 13 -6
2 -11 -4 -11 -13z"/>
<path d="M11315 8993 c-52 -16 -110 -51 -101 -61 4 -3 17 5 31 18 14 13 25 19
25 13 0 -6 -16 -24 -36 -40 -31 -25 -37 -36 -41 -80 -6 -55 9 -89 56 -130 15
-12 21 -22 15 -23 -5 0 -16 6 -23 13 -19 19 10 -33 34 -60 22 -26 47 -29 68
-8 8 8 35 19 61 26 74 19 135 99 136 179 l0 35 -15 -29 c-8 -15 -15 -36 -15
-45 0 -9 -7 -25 -15 -35 -18 -24 -19 -19 -4 23 13 38 -5 118 -30 138 -11 9
-12 12 -3 13 7 0 21 -14 31 -31 11 -19 21 -26 26 -20 10 17 -41 73 -89 98 -48
26 -47 26 -111 6z m15 -158 c0 -84 0 -85 -25 -85 -24 0 -25 3 -25 54 0 49 -2
54 -20 49 -14 -4 -20 0 -20 13 0 27 30 54 62 54 l28 0 0 -85z m112 68 c21 -19
26 -121 6 -141 -16 -16 -69 -15 -90 2 -24 18 -25 112 -1 138 20 22 61 23 85 1z
m13 -199 c-30 -24 -90 -42 -102 -30 -4 3 5 6 19 6 14 0 43 13 64 29 46 34 62
30 19 -5z"/>
<path d="M11390 8829 c0 -36 4 -49 13 -47 15 5 21 41 13 74 -11 42 -26 26 -26
-27z"/>
<path d="M11505 8960 c3 -5 8 -10 11 -10 2 0 4 5 4 10 0 6 -5 10 -11 10 -5 0
-7 -4 -4 -10z"/>
<path d="M11087 8713 c-4 -3 -7 -21 -7 -40 0 -28 3 -33 23 -32 16 1 18 2 5 6
-21 5 -24 23 -5 23 8 0 8 3 -2 9 -12 8 -12 12 -2 25 13 15 2 23 -12 9z"/>
<path d="M10902 8688 c-26 -26 0 -77 33 -64 17 6 21 36 5 36 -5 0 -9 -4 -7 -9
1 -5 -2 -11 -8 -12 -5 -2 -11 9 -13 25 -3 23 0 28 12 23 9 -4 16 -2 16 3 0 14
-24 12 -38 -2z"/>
<path d="M10991 8684 c-1 -11 5 -29 13 -40 20 -26 39 -7 33 32 -4 29 -4 28 -6
-3 0 -18 -5 -33 -11 -33 -5 0 -14 15 -19 33 -6 21 -9 25 -10 11z"/>
<path d="M10830 8678 c0 -7 -3 -22 -6 -34 -5 -18 -1 -21 24 -21 l30 0 -16 34
c-16 33 -32 44 -32 21z m20 -28 c0 -5 -5 -10 -11 -10 -5 0 -7 5 -4 10 3 6 8
10 11 10 2 0 4 -4 4 -10z"/>
<path d="M10730 8668 c1 -36 13 -58 34 -57 16 1 17 2 4 6 -18 5 -21 43 -3 55
5 4 0 8 -12 8 -13 0 -23 -6 -23 -12z"/>
<path d="M10662 8650 c-2 -36 12 -55 34 -45 18 8 17 9 -3 12 -15 3 -23 13 -26
31 -4 26 -4 27 -5 2z"/>
<path d="M10548 8655 c-3 -3 -3 -16 -1 -30 5 -23 5 -23 25 -5 11 10 17 23 13
29 -7 12 -28 15 -37 6z m32 -15 c0 -5 -4 -10 -10 -10 -5 0 -10 5 -10 10 0 6 5
10 10 10 6 0 10 -4 10 -10z"/>
<path d="M10423 8615 c0 -22 2 -30 4 -17 2 12 2 30 0 40 -3 9 -5 -1 -4 -23z"/>
<path d="M10460 8631 c0 -32 11 -50 26 -44 11 4 11 7 -1 20 -20 19 -19 31 3
36 13 4 11 5 -5 6 -16 1 -23 -5 -23 -18z"/>
<path d="M10310 8612 c0 -17 5 -34 10 -37 6 -3 10 2 10 12 0 15 2 16 10 3 8
-12 11 -11 17 10 l7 25 7 -30 7 -30 1 32 c1 35 -16 54 -25 28 -6 -14 -8 -14
-25 1 -18 16 -19 16 -19 -14z"/>
<path d="M10240 8595 c0 -30 3 -35 23 -34 16 1 18 2 5 6 -21 5 -23 14 -6 31 9
9 9 12 -2 13 -10 0 -7 4 5 9 19 8 19 9 -2 9 -20 1 -23 -4 -23 -34z"/>
<path d="M10064 8598 c3 -13 6 -28 6 -35 0 -7 12 -1 26 12 29 27 25 45 -13 45
-21 0 -24 -3 -19 -22z m36 2 c0 -5 -4 -10 -9 -10 -6 0 -13 5 -16 10 -3 6 1 10
9 10 9 0 16 -4 16 -10z"/>
<path d="M10147 8588 c7 -38 13 -49 13 -25 0 21 9 22 24 1 10 -13 12 -10 12
20 0 36 -9 47 -20 24 -5 -10 -7 -10 -12 0 -12 25 -23 11 -17 -20z"/>
<path d="M9940 8593 c0 -34 12 -63 26 -63 14 0 31 47 20 57 -3 4 -6 -3 -6 -15
0 -29 -17 -36 -24 -9 -4 14 0 26 11 35 15 11 15 12 -5 12 -14 0 -22 -6 -22
-17z"/>
<path d="M9856 8569 c-9 -46 -8 -53 8 -40 7 6 21 8 30 5 16 -6 16 -4 4 27 -18
44 -34 47 -42 8z m28 -4 c3 -8 1 -15 -4 -15 -6 0 -10 7 -10 15 0 8 2 15 4 15
2 0 6 -7 10 -15z"/>
<path d="M11266 8591 c-5 -8 43 -35 51 -28 2 2 1 12 -3 21 -6 17 -39 22 -48 7z"/>
<path d="M9770 8563 c0 -42 15 -61 37 -47 17 11 19 29 8 62 -2 6 -14 12 -25
12 -15 0 -20 -6 -20 -27z m30 7 c0 -5 -4 -10 -10 -10 -5 0 -10 5 -10 10 0 6 5
10 10 10 6 0 10 -4 10 -10z m10 -30 c0 -5 -4 -10 -10 -10 -5 0 -10 5 -10 10 0
6 5 10 10 10 6 0 10 -4 10 -10z"/>
<path d="M9603 8573 c-18 -7 -16 -58 2 -73 12 -10 18 -10 30 0 17 14 20 40 5
40 -5 0 -10 -7 -10 -16 0 -23 -24 -11 -28 14 -3 17 2 22 18 22 12 0 18 5 15
10 -7 11 -13 11 -32 3z"/>
<path d="M9686 8544 c-4 -20 -5 -39 -2 -42 3 -3 6 0 6 7 0 9 9 12 24 9 24 -5
24 -4 12 25 -17 43 -33 44 -40 1z m21 -6 c-3 -8 -6 -5 -6 6 -1 11 2 17 5 13 3
-3 4 -12 1 -19z"/>
<path d="M9530 8561 c0 -6 -7 -8 -15 -5 -11 5 -15 -1 -15 -24 0 -17 5 -34 10
-37 6 -3 10 1 10 9 0 8 4 17 9 20 5 4 7 -3 4 -14 -3 -11 0 -20 6 -20 14 0 15
67 1 75 -5 3 -10 2 -10 -4z"/>
<path d="M9427 8553 c-2 -4 -8 -21 -11 -38 -6 -28 -4 -30 22 -30 28 0 29 1 19
30 -12 36 -23 50 -30 38z m16 -28 c4 -8 2 -17 -3 -20 -6 -4 -10 3 -10 14 0 25
6 27 13 6z"/>
<path d="M9327 8542 c-3 -4 -3 -20 0 -35 4 -21 8 -25 14 -15 8 11 10 11 18 0
6 -10 10 -8 14 9 3 13 1 29 -5 36 -12 14 -34 17 -41 5z m35 -17 c0 -5 -5 -11
-11 -13 -6 -2 -11 4 -11 13 0 9 5 15 11 13 6 -2 11 -8 11 -13z"/>
<path d="M9274 8513 c5 -28 2 -33 -14 -33 -12 0 -20 9 -23 25 -4 23 -4 23 -3
-2 1 -21 7 -29 24 -31 27 -4 36 16 22 49 -10 22 -10 21 -6 -8z"/>
<path d="M9170 8527 c0 -1 -4 -17 -9 -35 -6 -20 -6 -32 0 -32 5 0 9 9 9 20 0
25 9 25 26 3 11 -15 12 -13 2 15 -7 17 -16 32 -20 32 -4 0 -8 -1 -8 -3z"/>
<path d="M9686 8379 c-14 -11 -26 -25 -26 -32 0 -6 9 -1 19 10 38 40 150 38
135 -2 -7 -17 -73 -60 -80 -52 -3 3 0 14 7 26 18 28 4 38 -21 16 -24 -21 -43
-81 -38 -115 5 -36 50 -39 82 -7 21 21 27 23 37 11 19 -24 25 -16 27 39 1 28
7 54 12 55 17 6 11 24 -17 48 -36 31 -100 32 -137 3z m116 -94 c-2 -14 -8 -22
-13 -19 -13 8 -11 32 4 37 6 3 13 6 13 6 1 1 -1 -10 -4 -24z m-42 -25 c-12
-22 -49 -45 -57 -36 -4 3 -1 17 5 31 8 17 20 25 37 25 23 0 24 -2 15 -20z"/>
<path d="M10473 8380 c-18 -11 -33 -25 -33 -31 0 -6 11 -2 25 9 53 42 148 35
125 -8 -11 -20 -68 -55 -76 -47 -3 3 2 12 11 21 10 10 14 24 10 34 -5 15 -9
14 -25 -8 -25 -32 -54 -116 -46 -135 9 -23 51 -18 85 11 24 20 31 22 31 10 0
-23 33 -20 56 5 l18 20 8 -22 8 -22 25 23 c21 20 25 21 25 7 0 -19 15 -23 26
-5 4 7 3 8 -4 4 -16 -10 -15 7 2 49 9 21 22 35 33 36 10 0 13 3 6 6 -7 2 -13
16 -13 29 0 13 -4 24 -10 24 -5 0 -10 -4 -10 -8 0 -5 -7 -17 -15 -28 -15 -19
-16 -19 -13 1 4 29 -10 30 -37 1 -13 -14 -20 -26 -15 -26 5 0 7 -8 3 -17 -11
-32 -54 -83 -69 -83 -22 0 -17 18 16 47 34 30 37 41 15 50 -21 7 -55 -24 -55
-51 0 -17 -2 -18 -10 -6 -7 11 -2 22 15 40 30 31 31 51 7 73 -25 23 -80 21
-119 -3z m257 -62 c0 -15 -37 -78 -46 -78 -5 0 0 23 17 68 9 23 29 30 29 10z
m-108 -30 c-7 -7 -12 -8 -12 -2 0 14 12 26 19 19 2 -3 -1 -11 -7 -17z m-72
-16 c0 -14 -49 -56 -57 -49 -12 13 16 57 37 57 11 0 20 -4 20 -8z"/>
<path d="M9883 8324 c-7 -3 -22 -21 -34 -41 -22 -35 -22 -36 -4 -49 16 -12 21
-11 37 3 17 15 18 15 18 -2 0 -9 -16 -32 -35 -49 -19 -18 -35 -38 -35 -45 0
-7 9 -3 20 10 26 32 26 15 -1 -22 -11 -16 -16 -29 -11 -29 16 0 51 45 72 92
23 53 35 65 44 43 3 -8 10 -15 17 -15 6 0 9 6 6 13 -3 8 1 14 9 14 10 0 13 -6
8 -16 -3 -9 -10 -30 -14 -46 -9 -41 -32 -83 -37 -68 -2 6 4 24 14 40 10 15 12
24 5 19 -6 -4 -19 -21 -27 -37 -14 -26 -14 -30 0 -35 23 -9 39 9 69 76 29 65
41 78 50 55 8 -22 40 -18 62 7 l19 22 -25 -17 c-49 -33 -55 -15 -10 31 19 20
30 26 30 17 0 -9 6 -12 16 -8 12 4 15 0 14 -18 -5 -60 20 -69 45 -16 l16 32
-21 -25 -22 -25 6 25 c3 14 9 35 12 48 5 16 2 22 -10 22 -9 0 -16 -6 -16 -12
0 -9 -2 -10 -8 -2 -4 7 -20 12 -37 12 -22 1 -38 -9 -62 -36 -30 -34 -33 -35
-33 -14 0 12 -3 22 -6 22 -3 0 -14 -10 -25 -22 -15 -19 -18 -20 -19 -6 0 9 9
23 21 31 15 11 17 17 8 23 -8 5 -24 -7 -45 -32 -26 -30 -32 -34 -28 -16 8 28
-22 31 -31 3 -6 -20 -45 -59 -45 -45 0 16 39 74 50 74 6 0 8 5 5 10 -7 11 -13
11 -32 4z m219 -36 c-7 -7 -12 -8 -12 -2 0 14 12 26 19 19 2 -3 -1 -11 -7 -17z"/>
<path d="M10775 8296 c-22 -29 -24 -38 -15 -55 6 -12 19 -21 30 -21 20 0 70
47 70 65 0 5 -12 -5 -26 -22 -24 -31 -54 -44 -54 -24 0 4 14 22 30 40 30 31
32 51 5 51 -8 0 -26 -15 -40 -34z m36 -9 c-10 -9 -11 -8 -5 6 3 10 9 15 12 12
3 -3 0 -11 -7 -18z"/>
<path d="M10850 8315 c0 -9 7 -18 16 -22 8 -3 14 -15 13 -27 -4 -56 12 -63 36
-13 l16 32 -21 -25 c-18 -21 -21 -22 -15 -5 3 11 9 32 12 48 5 25 3 27 -26 27
-21 0 -31 -5 -31 -15z"/>
<path d="M10280 8306 c0 -7 -3 -29 -6 -47 l-6 -34 24 29 24 28 -1 -28 c0 -41
26 -42 49 -2 l18 33 -22 -25 -22 -25 6 27 c3 14 9 33 12 42 8 21 -14 21 -38
-1 -17 -15 -18 -15 -18 0 0 10 -4 17 -10 17 -5 0 -10 -6 -10 -14z"/>
<path d="M11033 8273 c15 -2 37 -2 50 0 12 2 0 4 -28 4 -27 0 -38 -2 -22 -4z"/>
<path d="M11238 8273 c57 -2 147 -2 200 0 53 1 7 3 -103 3 -110 0 -154 -2 -97
-3z"/>
<path d="M4721 7853 c-7 -21 -42 -102 -77 -180 -35 -77 -64 -148 -64 -158 0
-9 -9 -35 -21 -58 -11 -23 -25 -52 -30 -64 l-9 -23 250 0 250 0 6 28 c6 27 68
215 124 372 46 132 65 120 -193 120 l-223 0 -13 -37z"/>
</g>
</svg>
